<?xml version="1.0" encoding="utf-8"?>
<!-- Generator: Adobe Illustrator 25.4.1, SVG Export Plug-In . SVG Version: 6.00 Build 0)  -->
<svg version="1.1" id="Слой_1" xmlns="http://www.w3.org/2000/svg" xmlns:xlink="http://www.w3.org/1999/xlink" x="0px" y="0px"
	 viewBox="0 0 1234.6 1234.6" style="enable-background:new 0 0 1234.6 1234.6;" xml:space="preserve">
<style type="text/css">
	.st0{fill:none;stroke:#FFFFFF;stroke-width:25;stroke-miterlimit:10;}
	.st1{display:none;fill:#FFFFFF;}
	.st2{fill:#FFFFFF;}
</style>
<circle class="st0" cx="617.3" cy="617.3" r="604.8"/>
<g>
	<path class="st1" d="M317,910.9c0-218.8,0-437.9,0-657c215.3,0,430.6,0,646,0c0,218.9,0,437.8,0,657
		C747.8,910.9,532.4,910.9,317,910.9z M586.6,844.7c6.2,10.8,12.2,21,18,31.3c13.2,23.2,45.6,26.6,62.6,6.1
		c5.5-6.6,9.1-14.6,13.6-22c3-4.9,5.9-9.9,8.9-15c1.4,0.9,2.2,1.3,3,1.9c9.3,7,18.5,14.3,27.9,21.1c17,12.3,42.1,7.5,53.9-9.9
		c6-8.8,6.2-18.8,7.5-28.6c1-7.8,2.1-15.6,3.2-23.9c12.2,3.3,23.5,6.8,34.9,9.4c5.9,1.3,12.4,2.2,18.1,1c23-4.6,35.5-25.6,29.4-48.3
		c-2.6-9.6-5.2-19.2-8.1-28.8c-1.2-4-0.6-5.6,4-6.1c11.1-1,22.2-2.2,33.2-4.1c30.1-5.2,42-38.6,22.3-62.2
		c-6.4-7.7-12.4-15.7-18.7-23.5c-1.9-2.3-2.2-3.8,0.8-5.4c9.7-5.2,19.3-10.5,28.8-16.1c11.6-6.7,18.4-16.6,19.1-30.2
		c0.8-15.6-5.5-27.5-19-35.3c-9.5-5.5-19.1-10.8-28.7-16.1c-2.8-1.5-3.1-2.9-1.1-5.4c6.3-7.7,12.3-15.7,18.8-23.3
		c19.2-22.5,8.2-56.1-20.7-62.1c-11.2-2.3-22.7-3-34.1-4.3c-5.6-0.6-6-1-4.5-6.6c1.5-5.5,3.3-10.8,4.7-16.3
		c2.5-9.1,5.3-18.1,4.7-27.9c-1.1-16.2-18-32.3-34.1-33.2c-10.5-0.6-19.9,3.2-29.7,5.7c-6.5,1.6-13.1,3.3-19.9,5
		c-0.3-1.3-0.5-2.1-0.6-2.9c-1.4-10.9-2.7-21.8-4.1-32.7c-3-23-24.8-37.6-47.5-32.3c-9.2,2.2-15.8,8.3-23,13.6
		c-6.8,5-13.4,10.2-20.5,15.5c-6-10.5-11.8-20.2-17.3-30.1c-13.6-24.6-45.5-28.3-63.7-6.9c-4.9,5.8-8.2,12.9-12.1,19.4
		c-3.4,5.6-6.6,11.4-10.1,17.5c-10.6-8-20.5-15.9-30.7-23.3c-22.8-16.7-56.5-2-60,26c-0.7,5.6-1.2,11.3-1.9,16.9
		c-0.8,6.4-1.9,12.7-2.9,19.4c-10.7-2.9-20.6-5.8-30.6-8c-6.1-1.4-12.4-2.6-18.6-2.5c-21.2,0.2-39.1,23.3-34.1,43.9
		c2.7,11.3,6.1,22.5,9.2,33.7c0.8,3,1.3,5.6-3.2,6c-10.4,1-20.8,2.1-31.3,3.3c-28.5,3.3-43.4,33.8-29.6,56
		c4.5,7.3,10.3,13.9,15.6,20.7c3.2,4.2,6.5,8.3,9.9,12.6c-1.3,1.1-2.1,1.9-3.1,2.5c-9.4,5.3-18.9,10.6-28.3,15.8
		c-23.7,12.9-26.8,45.3-5.7,62.1c5.5,4.4,12.1,7.5,18.3,11.1c6.1,3.6,12.3,7,19.2,10.8c-7.3,9.2-14,18.1-21.2,26.6
		c-17.3,20.3-10.7,50,14.1,60c6.9,2.8,14.8,3.2,22.4,4.3c7.7,1.1,15.5,1.8,24.3,2.8c-2.2,8-4.4,15.2-6.3,22.6
		c-1.8,6.9-4.4,13.8-4.7,20.8c-1.3,27.2,24.2,46.1,50.3,38c10.9-3.4,22-6,33.4-9.1c0.5,2.7,1,4.8,1.3,6.9
		c1.3,10.1,2.2,20.2,3.8,30.2c4.4,28.1,37.1,41.6,60.1,25c6.5-4.7,12.7-9.7,19-14.6C578.9,850.5,582.5,847.8,586.6,844.7z"/>
	<path class="st2" d="M548.2,961c-5.5,4.1-10.4,7.8-15.3,11.6c-8.5,6.5-16.9,13.3-25.6,19.6c-31,22.4-74.9,4.2-80.8-33.5
		c-2.1-13.5-3.4-27.1-5.1-40.6c-0.4-2.8-1-5.6-1.7-9.3c-15.3,4.2-30.2,7.8-44.8,12.3c-35,10.8-69.3-14.5-67.5-51.1
		c0.5-9.4,3.9-18.7,6.3-28c2.5-9.9,5.4-19.6,8.4-30.3c-11.9-1.3-22.3-2.2-32.6-3.7c-10.1-1.5-20.7-2.1-30-5.8
		c-33.3-13.4-42.1-53.2-18.9-80.6c9.6-11.4,18.6-23.3,28.5-35.7c-9.2-5.2-17.5-9.8-25.7-14.5c-8.3-4.8-17.1-9-24.6-14.9
		c-28.4-22.5-24.2-66,7.6-83.4c12.8-7,25.4-14.1,38.1-21.2c1.3-0.7,2.4-1.9,4.2-3.3c-4.6-5.9-9-11.4-13.3-17
		c-7.1-9.2-14.8-18-21-27.9c-18.5-29.8,1.6-70.8,39.8-75.2c14-1.6,28-3.2,42-4.5c6-0.6,5.4-4,4.3-8c-4.1-15.1-8.7-30.1-12.3-45.3
		c-6.6-27.7,17.3-58.6,45.8-59c8.3-0.1,16.8,1.5,24.9,3.4c13.5,3.1,26.7,7,41.2,10.8c1.3-9,2.7-17.5,3.9-26c1-7.5,1.6-15.1,2.6-22.7
		c4.6-37.6,49.9-57.3,80.6-34.9c13.7,10,27,20.5,41.2,31.3c4.7-8.2,9.1-15.9,13.6-23.4c5.3-8.8,9.7-18.4,16.3-26.1
		c24.4-28.8,67.2-23.9,85.5,9.2c7.3,13.3,15.1,26.3,23.2,40.4c9.5-7.2,18.4-14.1,27.5-20.9c9.7-7.1,18.5-15.3,30.9-18.2
		c30.5-7.2,59.8,12.4,63.8,43.4c1.9,14.6,3.7,29.3,5.5,43.9c0.1,1.1,0.4,2.1,0.8,3.9c9.1-2.3,17.9-4.6,26.7-6.8
		c13.1-3.3,25.7-8.4,39.9-7.6c21.7,1.2,44.4,22.9,45.8,44.6c0.9,13.1-3,25.2-6.3,37.4c-2,7.3-4.4,14.5-6.4,21.9s-1.4,7.9,6.1,8.8
		c15.3,1.8,30.8,2.7,45.8,5.8c38.8,8,53.6,53.2,27.8,83.4c-8.7,10.2-16.8,21-25.3,31.4c-2.7,3.3-2.2,5.2,1.4,7.2
		c12.9,7.1,25.8,14.2,38.6,21.6c18.2,10.5,26.6,26.5,25.5,47.4c-0.9,18.3-10.1,31.6-25.6,40.7c-12.8,7.4-25.7,14.5-38.7,21.6
		c-4,2.2-3.6,4.2-1.1,7.3c8.5,10.4,16.5,21.2,25.1,31.5c26.4,31.7,10.4,76.5-30,83.5c-14.7,2.5-29.7,4.1-44.6,5.5
		c-6.2,0.6-6.9,2.8-5.3,8.2c3.9,12.8,7.4,25.7,10.9,38.7c8.2,30.5-8.5,58.7-39.5,64.9c-7.7,1.6-16.5,0.4-24.3-1.4
		c-15.4-3.4-30.5-8.1-46.9-12.6c-1.5,11.1-3,21.6-4.3,32.1c-1.7,13.3-2,26.7-10,38.5c-15.8,23.3-49.6,29.8-72.4,13.2
		c-12.7-9.2-25-18.9-37.5-28.4c-1-0.8-2.2-1.4-4-2.6c-4.1,6.9-8,13.5-12,20.1c-6,9.9-10.9,20.8-18.3,29.6
		c-22.9,27.6-66.5,23-84.1-8.2C564.6,989.2,556.6,975.6,548.2,961z M345.2,563.9c14.5,18.4,28.3,36,42.1,53.5
		c-14.2,17.9-27.8,35.2-42.2,53.3c20.3,11.4,39.9,22.4,59.6,33.4c-6,21.8-12,43-18,64.9c4.1,0.8,7.3,1.6,10.5,2
		c16.4,1.9,32.8,3.8,49.3,5.5c6.2,0.6,8.9,3,9.5,10c1.4,17.8,4.1,35.5,6.4,53.2c0.2,1.6,1.2,3.2,1.9,5.1
		c20.1-5.6,39.7-10.8,59.2-16.5c4.5-1.3,6.8-0.6,9,3.6c4.9,9.3,10.3,18.3,15.5,27.4c5,8.7,10,17.2,15.2,26.2c2.1-1.4,3.6-2.2,5-3.3
		c14.7-11.3,29.5-22.5,44.1-34c3.8-3,6.5-3.3,10.4-0.1c12,9.7,24.3,19,36.6,28.4c4,3.1,8.1,6,12.6,9.3
		c10.5-18.2,20.6-35.6,30.4-53.2c2.5-4.5,4.8-5.6,10-4c17.5,5.3,35.2,9.9,52.8,14.9c4.7,1.3,7.1,1,7.7-5.1c1.7-17.5,4.3-35,6.2-52.5
		c0.7-6.2,3.6-8.7,9.6-9.2c14.7-1.4,29.3-3,43.9-4.9c18.1-2.3,16.6,0.6,11.8-17.6c-4.4-16.6-9.3-33-14-49.8
		c19.9-11.2,39.4-22.1,59.7-33.5c-14.4-18.3-28.3-35.9-42.2-53.4c14.1-17.9,27.9-35.3,42.1-53.3c-3-1.9-5-3.3-7.1-4.4
		c-15.6-8.7-31.2-17.5-47-25.8c-4.6-2.4-5.1-4.8-3.7-9.5c5.1-17.1,9.5-34.4,14.6-51.6c1.8-6.1,0.5-8.3-6-9
		c-17.8-1.8-35.5-4.5-53.2-6c-6.9-0.6-7.6-4.5-8.2-9.5c-2.1-17.5-4.3-35-6.2-52.5c-0.5-5-2.3-5.8-7-4.5
		c-18.2,5.2-36.6,9.9-54.8,15.3c-4.2,1.2-6.1,0.4-8-3.1c-5.1-9.4-10.5-18.7-15.8-28c-5-8.6-10-17.2-15.3-26.3
		c-2.5,1.8-4.3,3.1-6,4.4c-14.5,11.2-29.2,22.2-43.6,33.6c-3.4,2.7-5.8,2.7-9.2,0c-14.9-11.8-30-23.4-45-35c-1.3-1-2.9-1.7-4.6-2.7
		c-1.4,2.2-2.6,3.8-3.6,5.5c-9.1,15.9-18.3,31.8-27.2,47.8c-2.2,4-4.3,5-9,3.6c-17.3-5.3-34.8-10-52.2-14.8
		c-7.8-2.1-8.5-1.4-9.5,6.8c-2,17.7-4.1,35.5-6.1,53.2c-0.4,3.5-1.6,5.4-5.7,5.8c-16.2,1.7-32.4,3.6-48.6,5.8
		c-15.9,2.1-15.8-1.3-10.9,16.5c4.7,16.9,9.6,33.8,14.4,50.9C384.8,541.7,365.4,552.6,345.2,563.9z M357.3,360.8
		c5.1,18.5,9.6,35.2,14.6,51.8c0.5,1.6,4,3.5,6,3.4c8.7-0.5,17.3-1.8,26-2.8c3.5-0.4,5.7-1.9,6.1-5.7c1.1-9.1,2.5-18.1,3.3-27.2
		c0.1-1.6-2-4.4-3.6-4.9c-11.1-3.4-22.3-6.4-33.4-9.5C370.5,364.4,364.8,362.8,357.3,360.8z M877.6,361.7c-2.5,0.2-3.9,0-5.1,0.4
		c-15.2,4.2-30.3,8.8-45.7,12.8c-5,1.3-5.8,3.9-5.2,8.2c1.2,8.4,2.2,16.8,3.8,25.1c0.3,1.8,2.7,4.3,4.4,4.6c9.5,1.5,19,2.6,28.5,3.4
		c1.6,0.1,4.4-1.7,4.9-3.2C868.1,396.2,872.6,379.5,877.6,361.7z M876.4,873.3c0.2-1.8,0.5-2.5,0.4-3.1
		c-4.4-15.9-8.6-31.9-13.4-47.7c-0.5-1.8-4.3-3.7-6.5-3.6c-9.1,0.5-18.3,1.7-27.3,3c-1.6,0.2-3.7,2.5-4,4.1
		c-1.6,8.8-2.6,17.7-3.9,26.5c-0.6,4,0.7,6.2,4.8,7.3c8.9,2.3,17.6,5.1,26.4,7.5C860.4,869.4,868.1,871.2,876.4,873.3z M957.4,756
		c-12.2-15.2-23.3-29.3-34.7-43.3c-0.7-0.8-3.3-0.8-4.5-0.1c-8.5,4.4-17,9-25.2,13.8c-1.3,0.8-2.4,3.6-2.1,5.2
		c2.1,9.1,4.7,18.1,6.9,27.2c0.9,3.6,2.9,4.4,6.4,4c8.9-1.1,17.8-1.8,26.6-2.9C939.2,758.8,947.5,757.5,957.4,756z M414.2,858.3
		c-1.6-11.4-2.9-21.5-4.7-31.6c-0.3-1.8-2.5-4.5-4.2-4.8c-9.2-1.4-18.6-2.5-27.9-3c-2-0.1-5.4,2.3-6,4.2c-4.6,15.3-8.8,30.8-13,46.3
		c-0.3,1,0,2.1,0,4.1C377.2,868.4,395.3,863.4,414.2,858.3z M618.1,255.8c-1.2,0.8-1.9,1-2.2,1.5c-8.5,14.7-17.2,29.3-25.3,44.1
		c-0.8,1.4,0.5,5.2,2,6.5c7,5.9,14.3,11.5,21.8,16.7c1.5,1,5.1,0.8,6.7-0.3c7.3-5.1,14.2-10.9,21.4-16.1c3.6-2.6,3.5-5.1,1.4-8.5
		c-3.6-5.9-7.1-11.9-10.6-17.8C628.2,273.2,623.2,264.6,618.1,255.8z M956.3,479.7c-1.2-0.9-1.7-1.6-2.2-1.6
		c-16.8-2.1-33.7-4.3-50.6-5.9c-1.7-0.2-4.9,2.2-5.5,4.1c-2.8,8.9-5.1,18-7.2,27.2c-0.3,1.5,1.1,4.1,2.4,5
		c7.5,4.5,15.3,8.4,22.7,12.9c4.2,2.6,6.7,1.6,9.5-2c7.5-9.8,15.3-19.3,22.9-29C951.1,486.8,953.6,483.2,956.3,479.7z M476.2,281.8
		c-2.2,19.6-4.3,37-5.9,54.5c-0.1,1.4,2.4,4,4.1,4.5c8.5,2.7,17.1,5.1,25.8,7.1c1.9,0.4,5.4-0.6,6.4-2.2c5-7.9,9.7-16.1,14-24.4
		c0.8-1.6-0.1-5.3-1.5-6.5c-7.9-6.6-16.2-12.6-24.3-18.9C489.2,291.7,483.5,287.4,476.2,281.8z M758.9,283.6
		c-2.3,0.7-3.2,0.8-3.9,1.3c-13.3,10.1-26.6,20.2-39.7,30.7c-1.2,1-1.3,4.9-0.4,6.7c4,7.9,8.4,15.7,13.2,23.2c1,1.6,4.4,3,6.3,2.5
		c8.7-2,17.2-4.7,25.8-6.9c3.9-1,5.6-2.7,4.7-7.1c-1.1-5-1.3-10.1-1.9-15.2C761.7,307.4,760.3,296,758.9,283.6z M757.2,951.5
		c0.9-1.4,1.3-1.8,1.4-2.2c2.2-17,4.5-34.1,6.4-51.2c0.1-1.3-2.6-3.8-4.5-4.4c-8.5-2.7-17-5.2-25.7-7.2c-1.9-0.5-5.5,0.7-6.5,2.3
		c-4.9,7.7-9.1,15.9-13.8,23.8c-2,3.4-1.2,5.5,1.9,7.8c7.6,5.5,14.8,11.5,22.3,17.2C744.7,942.2,750.8,946.7,757.2,951.5z
		 M476,951.1c2.1-0.6,3.1-0.6,3.8-1c13.5-10.3,27-20.6,40.3-31.1c1.1-0.8,1.4-4.1,0.7-5.5c-4.4-8.3-9-16.5-13.9-24.4
		c-1-1.5-4.1-2.9-5.8-2.5c-9.1,2.2-18.1,4.7-27,7.6c-1.6,0.5-3.6,3.4-3.4,5C472,916.1,474,933.2,476,951.1z M278.2,478.2
		c1.5,2.4,2.2,3.8,3.1,5c7.3,9.3,14.7,18.5,22.1,27.8c10.7,13.5,10.7,13.5,25.4,4.9c17.1-10,17.1-10,11.4-29.3
		c-4.2-14.5-4.3-14.8-19-13.4C307.3,474.4,293.4,476.4,278.2,478.2z M985.5,617.3c-17.1-9.6-32.3-18.3-47.8-26.6
		c-1.3-0.7-4.8,0.4-6,1.8c-5.8,6.7-11.5,13.7-16.7,21c-1.2,1.7-1.3,5.6-0.2,7.3c5.2,7.3,11.1,14,16.5,21.1c2.7,3.5,5.1,3.3,8.5,1.3
		c6.5-3.9,13.2-7.5,19.8-11.2C967.7,627.5,975.8,622.9,985.5,617.3z M249.6,617.3c17.3,9.7,32.9,18.6,48.8,27.2c1,0.5,3.7-0.8,4.8-2
		c5.8-6.8,11.5-13.7,16.6-21c1.3-1.9,1.5-6.2,0.2-8c-4.9-7.2-10.8-13.7-16-20.7c-2.6-3.5-5.1-3.4-8.5-1.3
		c-5.1,3.1-10.5,5.9-15.8,8.8C270.1,605.6,260.6,611,249.6,617.3z M278.1,755.3c2.4,0.7,3.5,1.3,4.8,1.5c16.6,2,33.2,4.1,49.9,5.8
		c1.3,0.1,3.7-2.2,4.2-3.8c2.7-9,5.2-18,7.4-27.1c0.3-1.5-0.7-4.2-1.9-4.9c-9.4-5.5-19-10.5-29-16
		C301.5,725.8,290,740.2,278.1,755.3z M617.4,907.5c-9,6.9-17.5,13.3-25.8,20.2c-1.2,1-1.5,4.5-0.8,6.1c2.3,5,5.4,9.8,8.2,14.6
		c5.9,10.1,11.8,20.3,18.5,31.7c9.6-16.8,18.5-32.1,27.1-47.7c0.6-1.2-0.5-4.3-1.8-5.4C634.7,920.5,626.3,914.3,617.4,907.5z"/>
	<path class="st1" d="M435.5,549.1c15-8.4,29.5-16.5,44.4-24.8c-3.6-12.7-7.3-25.3-10.7-37.9c-3.7-13.2-3.8-10.7,8.1-12.2
		c12-1.6,24.1-3.1,36.2-4.3c3.1-0.3,4-1.8,4.2-4.4c1.5-13.2,3-26.4,4.5-39.6c0.7-6.1,1.2-6.6,7-5c13,3.5,26,7.1,38.9,11
		c3.5,1.1,5,0.3,6.7-2.7c6.6-11.9,13.5-23.8,20.2-35.6c0.7-1.3,1.6-2.5,2.7-4.1c1.3,0.8,2.5,1.3,3.5,2c11.2,8.6,22.4,17.2,33.5,26
		c2.6,2,4.3,2,6.9,0c10.7-8.4,21.6-16.7,32.4-25c1.3-1,2.6-1.9,4.5-3.3c3.9,6.7,7.7,13.1,11.4,19.5c4,6.9,7.9,13.9,11.8,20.9
		c1.4,2.6,2.9,3.2,6,2.3c13.5-4,27.2-7.5,40.8-11.4c3.5-1,4.8-0.4,5.2,3.4c1.4,13,3.1,26.1,4.6,39.1c0.5,3.7,1,6.6,6.1,7.1
		c13.2,1.1,26.4,3.2,39.6,4.5c4.8,0.5,5.8,2.1,4.5,6.7c-3.8,12.7-7.1,25.6-10.8,38.4c-1,3.5-0.7,5.2,2.8,7
		c11.8,6.2,23.3,12.8,35,19.2c1.6,0.9,3.1,1.9,5.3,3.3c-10.5,13.4-20.8,26.4-31.3,39.7c10.3,13,20.7,26.1,31.4,39.7
		c-15.1,8.5-29.6,16.6-44.4,24.9c3.5,12.5,7.2,24.7,10.4,37.1c3.6,13.6,4.7,11.4-8.8,13.1c-10.9,1.4-21.8,2.6-32.7,3.6
		c-4.5,0.4-6.6,2.3-7.1,6.9c-1.4,13-3.4,26-4.6,39.1c-0.4,4.5-2.2,4.8-5.7,3.8c-13.1-3.7-26.3-7.1-39.3-11.1c-3.9-1.2-5.6-0.4-7.5,3
		c-7.3,13.1-14.8,26-22.6,39.6c-3.4-2.5-6.4-4.7-9.4-6.9c-9.1-7-18.3-13.9-27.2-21.1c-2.9-2.3-4.9-2.1-7.7,0.1
		c-10.8,8.6-21.8,16.9-32.8,25.3c-1,0.8-2.2,1.4-3.7,2.5c-3.9-6.7-7.6-13.1-11.3-19.5c-3.9-6.8-7.9-13.5-11.5-20.4
		c-1.6-3.1-3.3-3.6-6.7-2.7c-14.5,4.3-29.1,8.2-44,12.3c-0.5-1.4-1.2-2.6-1.4-3.8c-1.7-13.2-3.7-26.3-4.8-39.6
		c-0.4-5.2-2.4-7-7.1-7.4c-12.2-1.3-24.5-2.7-36.7-4.1c-2.4-0.3-4.8-0.9-7.8-1.5c4.5-16.3,8.9-32.1,13.4-48.3
		c-14.7-8.2-29.2-16.4-44.4-24.9c10.7-13.5,20.8-26.4,31.4-39.7C456.6,575.9,446.3,562.8,435.5,549.1z M565.4,672.5
		c2,0.2,3.2,0.3,4.3,0.3c37.5,0,75,0.1,112.5,0c15.1-0.1,28.2-13.2,28.6-28.6c0.3-14.5,0.3-29-0.1-43.5c-0.1-4.3-1.4-9-3.4-12.8
		c-6.5-12.1-17.5-16.5-30.8-16.5c-23.8,0.2-47.7,0-71.5,0.2c-3.9,0-5-1.4-4.9-4.9c0.1-7.2,0.2-14.4,0-21.5c-0.2-4.8,1.2-6.7,6.5-6.6
		c20.8,0.3,41.7,0.1,62.5,0.1c12.5,0,25,0.1,37.5-0.1c1.5,0,4.2-1.6,4.2-2.5c0.3-10.3,0.2-20.6,0.2-31.4c-2,0-3.4,0-4.9,0
		c-32,0-64,0-96,0c-6.2,0-12.3,0-18.4,0.5c-12.7,1-25.5,13.2-25.9,25.8c-0.5,16.2-0.5,32.4,0.3,48.5c0.7,14.3,13.5,25.7,27.9,26.3
		c3.3,0.1,6.7,0.2,10,0.2c22.2,0,44.3,0.1,66.5,0c4.5,0,6.3,1.3,6,6.1c-0.4,6.7-0.1,13.3-0.1,20c0,6.9,0,7-6.9,7c-32,0-64,0-96,0
		c-1.7,0-3.4-0.3-5,0.2c-1.1,0.3-2.8,1.7-2.8,2.6C565.4,651.8,565.4,661.9,565.4,672.5z"/>
	<path class="st1" d="M444.5,397.9c5.6,1.5,9.9,2.6,14.1,3.8c8.3,2.3,16.7,4.5,24.9,7c1.2,0.4,2.8,2.5,2.7,3.7
		c-0.6,6.8-1.7,13.5-2.5,20.2c-0.3,2.8-1.9,3.9-4.6,4.2c-6.4,0.7-12.9,1.6-19.3,2.1c-1.5,0.1-4.1-1.3-4.5-2.5
		C451.6,424.1,448.3,411.7,444.5,397.9z"/>
	<path class="st1" d="M831.7,398.6c-3.7,13.3-7,25.7-10.7,38.1c-0.3,1.1-2.4,2.5-3.6,2.4c-7.1-0.6-14.2-1.4-21.2-2.5
		c-1.3-0.2-3-2.1-3.3-3.4c-1.2-6.2-1.9-12.5-2.8-18.7c-0.5-3.2,0.1-5.1,3.9-6.1c11.4-2.9,22.7-6.3,34-9.5
		C828.9,398.6,829.8,398.7,831.7,398.6z"/>
	<path class="st1" d="M830.8,779.4c-6.1-1.6-11.9-3-17.6-4.5c-6.6-1.8-13.1-3.8-19.7-5.6c-3-0.8-4-2.5-3.6-5.4
		c1-6.6,1.8-13.2,2.9-19.7c0.2-1.2,1.8-2.9,3-3c6.7-1,13.5-1.8,20.3-2.2c1.6-0.1,4.5,1.3,4.9,2.7c3.6,11.8,6.7,23.7,10,35.5
		C831.2,777.5,831,778.1,830.8,779.4z"/>
	<path class="st1" d="M891.2,692.1c-7.4,1.1-13.6,2.1-19.8,2.9c-6.6,0.8-13.2,1.3-19.8,2.2c-2.6,0.3-4.1-0.3-4.8-3
		c-1.7-6.8-3.6-13.5-5.2-20.2c-0.3-1.2,0.6-3.3,1.5-3.8c6.1-3.6,12.4-7,18.8-10.3c0.9-0.5,2.9-0.5,3.4,0.1
		C873.8,670.2,882.2,680.7,891.2,692.1z"/>
	<path class="st1" d="M486.9,768.2c-14.1,3.8-27.6,7.5-41.5,11.4c0-1.5-0.2-2.4,0-3.1c3.2-11.5,6.2-23,9.7-34.4
		c0.4-1.4,3-3.2,4.5-3.2c7,0.4,13.9,1.2,20.8,2.2c1.2,0.2,2.9,2.2,3.1,3.6C484.7,752.2,485.7,759.8,486.9,768.2z"/>
	<path class="st1" d="M638.7,319.8c3.8,6.5,7.5,13,11.2,19.4c2.6,4.5,5.2,8.9,7.9,13.3c1.5,2.5,1.7,4.4-1,6.3
		c-5.4,3.9-10.5,8.2-15.9,12c-1.2,0.8-3.9,1-5,0.2c-5.6-3.9-11-8-16.2-12.4c-1.1-0.9-2.1-3.8-1.5-4.8c6.1-11.1,12.5-21.9,18.8-32.8
		C637.2,320.5,637.8,320.4,638.7,319.8z"/>
	<path class="st1" d="M890.4,486.4c-2,2.6-3.9,5.3-5.9,7.9c-5.7,7.2-11.4,14.3-17,21.6c-2.1,2.7-3.9,3.4-7,1.5
		c-5.5-3.4-11.4-6.3-16.9-9.6c-1-0.6-2.1-2.6-1.8-3.7c1.5-6.8,3.2-13.6,5.3-20.2c0.4-1.4,2.8-3.2,4.1-3c12.6,1.2,25.1,2.9,37.7,4.4
		C889.1,485.2,889.5,485.7,890.4,486.4z"/>
	<path class="st1" d="M533,339.2c5.4,4.1,9.6,7.3,13.8,10.5c6.1,4.6,12.2,9.2,18.1,14.1c1,0.9,1.7,3.7,1.1,4.8
		c-3.2,6.2-6.7,12.3-10.4,18.2c-0.7,1.1-3.3,1.9-4.8,1.6c-6.5-1.5-12.9-3.3-19.2-5.3c-1.3-0.4-3.2-2.3-3-3.4
		C529.9,366.7,531.4,353.7,533,339.2z"/>
	<path class="st1" d="M743.4,340.5c1.1,9.2,2,17.7,3,26.3c0.4,3.8,0.6,7.6,1.4,11.3c0.7,3.3-0.6,4.5-3.5,5.3
		c-6.4,1.7-12.7,3.7-19.2,5.1c-1.4,0.3-3.9-0.7-4.7-1.9c-3.6-5.6-6.8-11.4-9.8-17.3c-0.7-1.3-0.6-4.3,0.3-5
		c9.7-7.8,19.6-15.3,29.5-22.9C741,341.1,741.7,341,743.4,340.5z"/>
	<path class="st1" d="M742.2,837.6c-4.8-3.6-9.3-6.9-13.8-10.3c-5.5-4.2-11-8.7-16.6-12.8c-2.3-1.7-2.9-3.3-1.4-5.8
		c3.4-5.9,6.6-12,10.2-17.7c0.7-1.2,3.4-2,4.8-1.7c6.5,1.5,12.8,3.3,19.2,5.4c1.4,0.4,3.5,2.3,3.3,3.3c-1.4,12.7-3.1,25.4-4.7,38.1
		C743.2,836.3,742.9,836.5,742.2,837.6z"/>
	<path class="st1" d="M532.8,837.3c-1.5-13.3-2.9-26-4.1-38.7c-0.1-1.2,1.4-3.3,2.5-3.7c6.6-2.2,13.3-4.1,20.1-5.7
		c1.3-0.3,3.6,0.8,4.3,1.9c3.7,5.9,7.1,12,10.4,18.2c0.5,1,0.3,3.5-0.5,4.1c-9.9,7.8-19.9,15.5-30,23.2
		C535.1,836.9,534.4,836.9,532.8,837.3z"/>
	<path class="st1" d="M385.6,485.3c11.3-1.4,21.6-2.8,32-3.8c11-1,11-0.9,14.2,10c4.2,14.4,4.2,14.4-8.5,21.8
		c-11,6.4-11,6.4-18.9-3.6c-5.5-6.9-11-13.8-16.4-20.7C387.3,488.1,386.8,487.1,385.6,485.3z"/>
	<path class="st1" d="M912.1,588.9c-7.2,4.1-13.2,7.5-19.3,10.9c-4.9,2.8-9.9,5.5-14.8,8.3c-2.5,1.5-4.3,1.7-6.3-1
		c-4-5.3-8.4-10.3-12.3-15.7c-0.9-1.2-0.8-4.2,0.1-5.4c3.8-5.4,8.1-10.6,12.4-15.6c0.9-1,3.4-1.9,4.4-1.3
		C888,575.3,899.4,581.8,912.1,588.9z"/>
	<path class="st1" d="M364.3,588.8c8.2-4.7,15.3-8.7,22.4-12.7c3.9-2.2,7.9-4.2,11.8-6.6c2.5-1.5,4.4-1.7,6.3,1
		c3.9,5.2,8.2,10,11.9,15.4c1,1.4,0.8,4.6-0.2,6c-3.8,5.4-8.1,10.6-12.4,15.7c-0.8,0.9-2.8,1.9-3.5,1.5
		C388.8,602.7,377.2,596.1,364.3,588.8z"/>
	<path class="st1" d="M385.6,691.6c8.9-11.2,17.4-22,26.3-33.2c7.4,4,14.5,7.8,21.5,11.9c0.9,0.5,1.7,2.6,1.4,3.7
		c-1.6,6.8-3.4,13.5-5.5,20.2c-0.4,1.2-2.2,3-3.1,2.8c-12.4-1.3-24.8-2.8-37.1-4.3C388.2,692.6,387.3,692.1,385.6,691.6z"/>
	<path class="st1" d="M638.1,804.9c6.6,5,12.9,9.7,19,14.5c1,0.8,1.8,3.1,1.3,4c-6.4,11.6-13,23-20.2,35.5
		c-5-8.5-9.4-16.1-13.8-23.6c-2.1-3.6-4.3-7.1-6.1-10.8c-0.6-1.2-0.3-3.8,0.6-4.5C625.1,814.8,631.4,810,638.1,804.9z"/>
	<path class="st2" d="M519.8,729.7c0-14.2-0.1-27.8,0.2-41.4c0-1.2,2.3-3,3.8-3.4c2.1-0.6,4.4-0.2,6.7-0.2c43,0,86,0,129,0
		c9.2,0,9.2-0.1,9.2-9.4c0-9-0.4-17.9,0.1-26.9c0.4-6.3-2.1-8.2-8.1-8.2c-29.8,0.2-59.6,0.1-89.4,0.1c-4.5,0-9,0-13.4-0.2
		c-19.3-0.8-36.5-16.1-37.5-35.3c-1.1-21.7-1.1-43.5-0.4-65.1c0.6-17,17.7-33.4,34.8-34.7c8.2-0.6,16.5-0.6,24.8-0.6
		c43,0,86,0,129,0c2,0,3.9,0,6.5,0c0,14.5,0.2,28.3-0.3,42.2c0,1.2-3.6,3.3-5.6,3.4c-16.8,0.3-33.6,0.2-50.4,0.2
		c-28,0-56,0.3-84-0.2c-7.1-0.1-8.9,2.4-8.7,8.9c0.3,9.6,0.2,19.3,0,28.9c-0.1,4.8,1.4,6.6,6.6,6.6c32-0.3,64-0.1,96.1-0.3
		c17.9-0.1,32.6,5.9,41.4,22.1c2.8,5.1,4.4,11.4,4.6,17.2c0.6,19.5,0.6,39,0.2,58.5c-0.5,20.7-18.2,38.3-38.4,38.4
		c-50.4,0.2-100.8,0.1-151.2,0.1C524.1,730.2,522.5,729.9,519.8,729.7z"/>
</g>
</svg>
