<?xml version="1.0" encoding="utf-8"?>
<!-- Generator: Adobe Illustrator 25.4.1, SVG Export Plug-In . SVG Version: 6.00 Build 0)  -->
<svg version="1.1" id="Слой_1" xmlns="http://www.w3.org/2000/svg" xmlns:xlink="http://www.w3.org/1999/xlink" x="0px" y="0px"
	 viewBox="0 0 1234.6 1234.6" style="enable-background:new 0 0 1234.6 1234.6;" xml:space="preserve">
<style type="text/css">
	.st0{fill:none;stroke:#FFFFFF;stroke-width:25;stroke-miterlimit:10;}
	.st1{display:none;fill:#FFFFFF;}
	.st2{fill:#FFFFFF;}
</style>
<circle class="st0" cx="617.3" cy="617.3" r="604.8"/>
<g>
	<path class="st1" d="M112,817.3c0-133.3,0-266.7,0-400c336.9,0,673.8,0,1010.7,0c0,133.4,0,266.7,0,400
		C785.7,817.3,448.8,817.3,112,817.3z M802.9,635.9c0.3,0,0.6,0,0.9,0c0,49.5,0.1,99.1-0.1,148.6c0,5,1.5,7,6.7,6.9
		c10.4-0.2,20.8-0.1,31.2,0.2c5.1,0.2,7.4-1.4,7.3-6.9c-0.1-15.9,0.3-31.8,0.3-47.8c-0.1-42.8-0.3-85.6-0.4-128.4
		c-0.1-40.3-0.1-80.5-0.4-120.8c0-5.6,1.8-7.6,7.3-7.5c13.3,0.3,26.7,0.1,40.1,0.1c8.6,0,8.5-0.3,8.4-8.8c0-6.1-4.1-5.2-7.6-5.2
		c-34.1-0.2-68.2-0.4-102.3-0.5c-13.5,0-27,0.3-40.5,0.1c-5.9-0.1-6,3.3-5.8,7.6c0.2,4,0.4,7,6,6.8c13.2-0.4,26.3,0,39.5,0
		c9.4,0,9.5-0.1,9.5,9.5C802.9,538.6,802.9,587.2,802.9,635.9z M138.8,627.8c0.1,0,0.2,0,0.3,0c0,6.3,0,12.6,0,18.9
		c0.1,45.6,0.3,91.2,0.3,136.9c0,5.2,1.4,7.1,7,7c49-0.2,98,0,146.9,0.1c8.6,0,8.3,0.1,8.6-8.3c0.2-6.8-4.5-5.3-8-5.3
		c-34.3-0.1-68.6-0.1-102.9-0.1c-3.8,0-6-1.3-6-5.4c0-6.5,0-13,0-19.4c-0.1-27.1-0.4-54.1-0.5-81.2c-0.1-38.8,0-77.5-0.1-116.2
		c0-27.8-0.3-55.7-0.3-83.5c0-4-1.2-5.8-5.3-5.8c-11.7,0.1-23.4,0.1-35.1,0c-3.8,0-5.1,1.6-5.1,5.4
		C138.8,523.1,138.8,575.4,138.8,627.8z M707.8,676.4C707.7,676.4,707.7,676.4,707.8,676.4c-0.1-22.8-0.1-45.6-0.1-68.5
		c0-12.2-0.1-24.4,0-36.7c0-5.2-2.3-7.5-7.4-7.5c-5.2,0-5.8,3.4-5.7,7.5c0.2,9.5,0.2,18.9,0.2,28.4c0,35.5,0,70.9-0.3,106.3
		c0,2.5-1.8,4.9-2.7,7.4c-2.3-1.3-5.3-2.1-6.7-4c-15.3-21.7-30.3-43.5-45.5-65.3c-16.8-24.2-33.5-48.4-50.6-72.4
		c-4.6-6.4-10.8-10.8-19.2-11.9c-13.9-1.8-22.7,2.6-25.9,14.8c-1.4,5.3-2.2,11-2.3,16.5c-0.3,17.2-0.2,34.5-0.1,51.7
		c0.1,22.3,0.3,44.5,0.4,66.8c0.1,25.4,0.4,50.8,0.3,76.2c0,5.9,3.9,4.6,7.2,5c4,0.4,5.8-1.2,5.8-5.3c-0.1-16.7,0-33.4,0-50.1
		c0-32.6-0.1-65.3-0.1-97.9c0-6.5-0.3-13,0.2-19.5c0.2-2.7,1.5-6.4,3.5-7.4c1.8-0.9,5.5,0.6,7.8,2.1c2.5,1.7,4.6,4.3,6.4,6.9
		c9.9,13.9,19.6,27.9,29.4,41.9c23.4,33.4,46.9,66.8,70.4,100.1c6,8.5,12.1,16.9,18.4,25.2c2.7,3.6,7.1,5.5,10.8,3.3
		c2.8-1.7,4.2-5.9,5.9-9.2c0.6-1.2,0.1-2.9,0.1-4.4C707.8,743.2,707.8,709.8,707.8,676.4z M512.7,790.6c-0.8-3.5-1-6.1-1.8-8.5
		c-9.1-27.4-18.2-54.8-27.4-82.3c-7.5-22.7-15-45.4-22.7-68.1c-6.9-20.3-13.9-40.7-21.4-60.8c-3.6-9.7-9.9-16.9-21.7-16.8
		c-11.5,0.1-18.7,5.6-22.3,16.5c-5.4,16.6-11.2,33-16.6,49.6c-9.7,29.8-19.1,59.6-28.6,89.4c-8.1,25.2-16.3,50.4-24.4,75.7
		c-0.4,1.3-0.4,4-0.2,4c3.4,0.6,6.9,1.4,10.2,1c1.6-0.2,3.7-2.3,4.3-4.1c4.9-14.2,9.7-28.4,14.1-42.8c1.3-4.3,3.7-5.8,8.1-5.8
		c29.7,0.2,59.4,0.3,89.1,0.1c5.3,0,7.5,2.1,9,6.9c4.3,14,9,27.9,13.8,41.7c0.5,1.6,2.4,3.9,3.8,3.9
		C489.1,790.7,500.4,790.6,512.7,790.6z M1092.4,791.5c0,0,0,0.1,0,0.1c3.9,0,7.8,0.1,11.7,0c7.6-0.2,8.2-1.1,5.8-8.2
		c-4.5-13.7-9-27.5-13.6-41.2c-8.5-25.9-17-51.8-25.6-77.6c-5.7-17.2-11.4-34.5-17.3-51.6c-4.7-13.6-9.5-27.3-14.9-40.6
		c-3.5-8.8-8.8-16.5-19.5-17.7c-11.4-1.3-19.7,4.6-24.3,18.3c-7.4,22.1-14.5,44.4-21.6,66.7c-8.9,27.9-17.6,55.9-26.4,83.8
		c-6.5,20.7-13.2,41.3-19.7,62c-0.5,1.6-0.8,4,0,5.1c2.1,2.8,12,0.7,13.2-2.8c5.1-14.9,10.2-29.8,15.1-44.8c1.1-3.4,3-4.8,6.5-4.8
		c4.3,0.1,8.5,0.1,12.8,0.1c25.4,0.1,50.8,0.2,76.2,0.1c4.8,0,7.4,1.6,8.8,6.3c3.3,11,6.8,22,10.7,32.8c5.8,16.2,1.9,13.7,18.9,13.9
		C1090.2,791.5,1091.3,791.5,1092.4,791.5z"/>
	<path class="st2" d="M802.9,635.9c0-48.6,0-97.3,0-145.9c0-9.6-0.2-9.6-9.5-9.5c-13.2,0-26.3-0.4-39.5,0c-5.7,0.2-5.8-2.8-6-6.8
		c-0.2-4.3-0.1-7.7,5.8-7.6c13.5,0.2,27-0.1,40.5-0.1c34.1,0.1,68.2,0.3,102.3,0.5c3.5,0,7.6-1,7.6,5.2c0,8.5,0.1,8.8-8.4,8.8
		c-13.4,0-26.7,0.1-40.1-0.1c-5.5-0.1-7.3,1.9-7.3,7.5c0.3,40.3,0.3,80.5,0.4,120.8c0.1,42.8,0.3,85.6,0.4,128.4
		c0,15.9-0.4,31.8-0.3,47.8c0.1,5.5-2.3,7.1-7.3,6.9c-10.4-0.3-20.8-0.4-31.2-0.2c-5.2,0.1-6.7-1.9-6.7-6.9
		c0.2-49.5,0.1-99.1,0.1-148.6C803.5,635.9,803.2,635.9,802.9,635.9z"/>
	<path class="st2" d="M138.8,627.8c0-52.3,0-104.7,0-157c0-3.8,1.3-5.4,5.1-5.4c11.7,0.1,23.4,0.1,35.1,0c4.1,0,5.3,1.7,5.3,5.8
		c0,27.8,0.2,55.7,0.3,83.5c0.1,38.7,0,77.5,0.1,116.2c0.1,27.1,0.3,54.1,0.5,81.2c0,6.5,0,13,0,19.4c0,4.1,2.2,5.4,6,5.4
		c34.3,0,68.6,0,102.9,0.1c3.5,0,8.2-1.4,8,5.3c-0.3,8.4,0.1,8.3-8.6,8.3c-49-0.1-98-0.2-146.9-0.1c-5.5,0-7-1.9-7-7
		c0-45.6-0.2-91.2-0.3-136.9c0-6.3,0-12.6,0-18.9C139,627.8,138.9,627.8,138.8,627.8z"/>
	<path class="st2" d="M707.8,676.4c0,33.4,0,66.8,0,100.2c0,1.5,0.5,3.2-0.1,4.4c-1.7,3.3-3.1,7.4-5.9,9.2
		c-3.7,2.2-8.1,0.3-10.8-3.3c-6.3-8.3-12.4-16.7-18.4-25.2c-23.5-33.3-46.9-66.7-70.4-100.1c-9.8-14-19.5-28-29.4-41.9
		c-1.8-2.5-3.9-5.2-6.4-6.9c-2.2-1.5-5.9-3-7.8-2.1c-2,1-3.3,4.7-3.5,7.4c-0.5,6.5-0.2,13-0.2,19.5c0,32.6,0.1,65.3,0.1,97.9
		c0,16.7,0,33.4,0,50.1c0,4.2-1.8,5.8-5.8,5.3c-3.3-0.4-7.2,0.9-7.2-5c0.1-25.4-0.2-50.8-0.3-76.2c-0.1-22.3-0.3-44.5-0.4-66.8
		c-0.1-17.2-0.2-34.5,0.1-51.7c0.1-5.5,0.9-11.2,2.3-16.5c3.3-12.2,12.1-16.6,25.9-14.8c8.4,1.1,14.7,5.5,19.2,11.9
		c17.1,24,33.8,48.2,50.6,72.4c15.1,21.8,30.2,43.6,45.5,65.3c1.4,2,4.4,2.7,6.7,4c0.9-2.5,2.7-4.9,2.7-7.4
		c0.2-35.5,0.2-70.9,0.3-106.3c0-9.5,0-18.9-0.2-28.4c-0.1-4.2,0.6-7.5,5.7-7.5c5,0,7.4,2.3,7.4,7.5c-0.1,12.2,0,24.4,0,36.7
		c0,22.8,0,45.6,0,68.5C707.7,676.4,707.7,676.4,707.8,676.4z"/>
	<path class="st2" d="M512.7,790.6c-12.4,0-23.6,0.1-34.9-0.2c-1.3,0-3.2-2.3-3.8-3.9c-4.8-13.9-9.5-27.7-13.8-41.7
		c-1.5-4.8-3.7-6.9-9-6.9c-29.7,0.2-59.4,0-89.1-0.1c-4.4,0-6.7,1.4-8.1,5.8c-4.5,14.3-9.2,28.6-14.1,42.8c-0.6,1.7-2.7,3.9-4.3,4.1
		c-3.3,0.4-6.8-0.4-10.2-1c-0.2,0-0.2-2.8,0.2-4c8.1-25.2,16.3-50.4,24.4-75.7c9.6-29.8,19-59.6,28.6-89.4
		c5.4-16.6,11.2-33,16.6-49.6c3.6-10.9,10.8-16.3,22.3-16.5c11.8-0.1,18.1,7,21.7,16.8c7.5,20.1,14.5,40.5,21.4,60.8
		c7.7,22.6,15.1,45.4,22.7,68.1c9.1,27.4,18.3,54.8,27.4,82.3C511.7,784.5,512,787,512.7,790.6z M406.3,723.5c0,0.1,0,0.2,0,0.2
		c12.1,0,24.1,0,36.2,0c8.5,0,8.9-0.6,6.4-9c0-0.2-0.1-0.3-0.2-0.5c-7.4-24.5-14.7-49-22.2-73.5c-3.4-11-6.8-22-10.8-32.7
		c-1.1-3-4.8-6.9-7.3-6.9c-3,0-7,3.2-8.8,6.1c-3,5-4.9,10.8-6.7,16.4c-9.7,30.4-19.3,60.8-28.9,91.2c-2.5,8-2.3,8.5,6.2,8.7
		C382.2,723.7,394.2,723.5,406.3,723.5z"/>
	<path class="st2" d="M1092.4,791.5c-1.1,0-2.2,0-3.3,0c-16.9-0.2-13.1,2.3-18.9-13.9c-3.9-10.8-7.4-21.8-10.7-32.8
		c-1.4-4.8-4-6.4-8.8-6.3c-25.4,0.1-50.8,0-76.2-0.1c-4.3,0-8.5,0-12.8-0.1c-3.4-0.1-5.4,1.4-6.5,4.8c-4.9,15-10,29.9-15.1,44.8
		c-1.2,3.4-11.1,5.6-13.2,2.8c-0.8-1.1-0.5-3.5,0-5.1c6.5-20.7,13.2-41.3,19.7-62c8.8-27.9,17.6-55.9,26.4-83.8
		c7.1-22.3,14.1-44.5,21.6-66.7c4.6-13.8,12.9-19.6,24.3-18.3c10.8,1.2,16,8.9,19.5,17.7c5.4,13.4,10.2,27,14.9,40.6
		c5.9,17.1,11.6,34.4,17.3,51.6c8.6,25.9,17.1,51.7,25.6,77.6c4.5,13.7,9,27.5,13.6,41.2c2.4,7.1,1.8,8-5.8,8.2
		c-3.9,0.1-7.8,0-11.7,0C1092.4,791.6,1092.4,791.6,1092.4,791.5z M1006.6,723.9C1006.6,723.8,1006.6,723.8,1006.6,723.9
		c12.6,0,25.2-0.2,37.8,0c5.2,0.1,6.2-2.2,4.7-6.5c-2.4-7.2-5.1-14.3-7.3-21.5c-8.5-27.8-16.9-55.7-25.4-83.5
		c-1.5-4.7-3.2-10.7-8.9-10.9c-5.6-0.2-8.1,5.5-9.8,10.2c-3.3,9-6.3,18.2-9.2,27.4c-8.2,26-16.3,52-24.3,78
		c-1.8,5.9-1.2,6.7,5.2,6.8C981.7,723.9,994.1,723.9,1006.6,723.9z"/>
	<path class="st1" d="M406.3,723.5c-12,0-24.1,0.2-36.2-0.1c-8.5-0.2-8.7-0.7-6.2-8.7c9.6-30.4,19.2-60.8,28.9-91.2
		c1.8-5.6,3.7-11.4,6.7-16.4c1.7-2.9,5.8-6,8.8-6.1c2.5,0,6.2,3.9,7.3,6.9c4.1,10.7,7.5,21.7,10.8,32.7c7.5,24.5,14.8,49,22.2,73.5
		c0,0.2,0.1,0.3,0.2,0.5c2.5,8.5,2.1,9-6.4,9c-12.1,0-24.1,0-36.2,0C406.3,723.7,406.3,723.6,406.3,723.5z"/>
	<path class="st1" d="M1006.6,723.9c-12.4,0-24.8,0-37.3,0c-6.4,0-7.1-0.8-5.2-6.8c8-26,16.1-52,24.3-78c2.9-9.2,5.9-18.3,9.2-27.4
		c1.7-4.7,4.2-10.3,9.8-10.2c5.7,0.2,7.4,6.2,8.9,10.9c8.6,27.8,16.9,55.7,25.4,83.5c2.2,7.2,4.9,14.3,7.3,21.5
		c1.5,4.3,0.6,6.6-4.7,6.5C1031.8,723.7,1019.2,723.8,1006.6,723.9C1006.6,723.8,1006.6,723.9,1006.6,723.9z"/>
</g>
</svg>
