<?xml version="1.0" encoding="utf-8"?>
<!-- Generator: Adobe Illustrator 25.4.1, SVG Export Plug-In . SVG Version: 6.00 Build 0)  -->
<svg version="1.1" id="Слой_1" xmlns="http://www.w3.org/2000/svg" xmlns:xlink="http://www.w3.org/1999/xlink" x="0px" y="0px"
	 viewBox="0 0 1234.6 1234.6" style="enable-background:new 0 0 1234.6 1234.6;" xml:space="preserve">
<style type="text/css">
	.st0{fill:none;stroke:#FFFFFF;stroke-width:25;stroke-miterlimit:10;}
	.st1{fill:#FFFFFF;}
</style>
<circle class="st0" cx="617.3" cy="617.3" r="604.8"/>
<circle class="st1" cx="1061.9" cy="997.3" r="119.8"/>
<g>
	<g>
		<path class="st1" d="M173.4,482h30.6v217.9h-30.6V482z M188.2,577.2h68.2v29.1h-68.2V577.2z M229.4,604l26.8-15.7l84,111.6h-42.4
			L229.4,604z M229.6,580.3l63.2-98.3h38.4L245,607.1L229.6,580.3z"/>
		<path class="st1" d="M370.2,482h30.6v217.9h-30.6V482z M386,586.3h69.7c6.6,0,12.4-1.5,17.4-4.6c5-3.1,8.9-7.5,11.6-13.2
			s4.1-12.2,4.1-19.6c0-7.5-1.4-14.1-4.1-19.8c-2.8-5.7-6.6-10.1-11.6-13.3c-5-3.2-10.8-4.7-17.4-4.7H386V482h68.6
			c13,0,24.4,2.8,34.3,8.3s17.5,13.4,23,23.5c5.4,10.1,8.2,21.8,8.2,35.1c0,13.3-2.7,25-8.2,35c-5.5,10-13.1,17.8-23,23.3
			s-21.3,8.2-34.3,8.2H386V586.3z"/>
		<path class="st1" d="M531.3,482H685v29.1H531.3V482z M592.9,499.8h30.6v200h-30.6V499.8z"/>
		<path class="st1" d="M709,482h30.6v217.9H709V482z M723.8,482H849v29.1H723.8V482z M723.8,577.2h108.6v29.1H723.8V577.2z
			 M723.8,670.8H849v29.1H723.8V670.8z"/>
		<path class="st1" d="M944.2,575.4l54.7-93.3h34.3l-72.1,117.9l-58.4,99.9h-34.3L944.2,575.4z M945.6,604.1l-4.6-7.5L870.2,482
			h34.3l52.6,88.7l4.9,8.1l74.5,121.1h-34.3L945.6,604.1z"/>
	</g>
</g>
</svg>
