<?xml version="1.0" encoding="utf-8"?>
<!-- Generator: Adobe Illustrator 25.4.1, SVG Export Plug-In . SVG Version: 6.00 Build 0)  -->
<svg version="1.1" id="Слой_1" xmlns="http://www.w3.org/2000/svg" xmlns:xlink="http://www.w3.org/1999/xlink" x="0px" y="0px"
	 viewBox="0 0 1234.6 1234.6" style="enable-background:new 0 0 1234.6 1234.6;" xml:space="preserve">
<style type="text/css">
	.st0{fill:none;stroke:#FFFFFF;stroke-width:25;stroke-miterlimit:10;}
	.st1{display:none;fill:#FEFEFE;}
	.st2{fill:#FFFFFF;}
</style>
<circle class="st0" cx="617.3" cy="617.3" r="604.8"/>
<g>
	<path class="st1" d="M248.6,714.9c-56.6,0-113.3,0-169.9,0c-1.6,0-1.9-0.3-1.9-1.9c0-98.8,0-197.7,0-296.5c0-1.6,0.4-1.9,1.9-1.9
		c359,0,718,0,1077.1,0c1.6,0,1.9,0.4,1.9,1.9c-0.1,57,0,113.9,0,170.9c-1,0.8-2.2,0.7-3.4,0.7c-11.3,0-22.6,0-33.9,0
		c-3.2,0-3.2,0.1-3.2,3.3c0,12.4,0,24.8,0,37.2c0,4.2-0.2,4.4-4.5,4.4c-27.9,0-55.9,0-83.8,0c-3.7,0-3.7,0-3.7,3.7c0,23,0,46,0,68.9
		c0,0.5,0,1,0,1.5c-0.1,1.7,0.7,2.3,2.3,2.3c11.6,0,23.3,0,34.9,0c2.3,0,2.5-0.3,2.6-2.7c0-12.2,0-24.5,0-36.7c0-5.4,0-5.4,5.4-5.4
		c27.8,0,55.6,0,83.4,0c1.3,0,2.7-0.3,3.8,0.7c0,4.2,0,8.3,0,12.5c-1,0.8-2.2,0.7-3.4,0.7c-11.3,0-22.6,0-33.8,0
		c-3.2,0-3.3,0-3.3,3.2c0,8.2,0,16.5,0,24.7c0,3.2,0,3.2,3.3,3.2c11.3,0,22.6,0,33.8,0c1.2,0,2.4-0.2,3.4,0.7c0,1.7,0.6,4-0.2,4.8
		c-0.8,0.8-3.1,0.2-4.8,0.2c-300.9,0-601.8,0-902.7,0c-0.1-1.5,1.2-1.9,2.1-2.6c12.7-9.5,25.5-18.9,38.2-28.4
		c3.6-2.7,7.2-5.4,10.8-8.3c-29.9,0-59.9,0-90.1,0c0.4,0.8,1,1.2,1.4,1.7c11.7,11.7,23.1,23.7,34.9,35.3
		C247.9,713.2,248.8,713.7,248.6,714.9z"/>
	<path class="st2" d="M1157.6,665c-10,0-20,0-29.9,0c-19.9,0-39.8,0-59.7,0c-1.9,0-2.4,0.5-2.4,2.4c0.1,13.4,0,26.8,0.1,40.3
		c0,1.7-0.3,2.2-2.1,2.2c-12.4-0.1-24.8-0.1-37.2,0c-1.7,0-2.1-0.5-2.1-2.1c0.1-24.5,0.1-49,0-73.5c0-2,0.7-2.2,2.4-2.2
		c29,0,58.1,0,87.1,0c3,0,2.6,0.3,2.6-2.7c0-13.3,0-26.7,0-40.1c0-1.7,0.4-2.2,2.1-2.2c12.4,0.1,24.8,0,37.2,0
		c0.6,0,1.2,0.1,1.9,0.1C1157.6,613.3,1157.6,639.2,1157.6,665z"/>
	<path class="st2" d="M248.6,714.9c-0.1-0.8-0.9-1.2-1.4-1.7c-12.1-12.2-24.2-24.3-36.4-36.5c-0.4-0.4-0.8-0.9-1.4-1.5
		c31.1,0,62,0,93.3,0c-1,0.8-1.7,1.4-2.5,1.9c-16.3,12.1-32.6,24.3-49,36.4c-0.5,0.4-1.3,0.6-1.5,1.4
		C249.4,714.9,249,714.9,248.6,714.9z"/>
	<path class="st2" d="M1157.6,709.9c-13,0-26,0-39.1,0c-1.7,0-2.2-0.4-2.2-2.2c0.1-9.5,0.1-18.9,0-28.4c0-1.1-0.2-2,1.5-2
		c13.2,0.1,26.4,0.1,39.7,0.1C1157.6,688.3,1157.6,699.1,1157.6,709.9z"/>
	<path class="st2" d="M359.1,632.3c-0.8,0-1.4,0-2.1,0c-16.8,0-33.6,0-50.3,0c-2.1,0-2.5-0.6-2.4-2.5c0.1-16.5,0-33.1,0-49.6
		c0-0.7,0-1.4,0-2.5c-2.3,2.2-4.3,4.1-6.3,6c-15.7,15.6-31.4,31.3-47.1,47c-1.2,1.2-2.3,1.7-4,1.7c-26.1,0-52.3,0-78.4,0
		c-0.8,0-1.5,0-2.3,0c-0.1,0.9,0.6,1.2,1.1,1.6c11.2,11.3,22.5,22.5,33.8,33.8c1.8,1.8,3.5,3.7,5.4,5.5c0.7,0.7,0.9,1.1,0.1,2
		c-11.3,11.3-22.6,22.6-33.9,34c-0.6,0.6-1.2,0.8-2,0.8c-30.9,0-61.7,0-92.6,0c-0.1,0-0.2-0.1,0,0.3
		c98.1-98.4,196.2-196.8,294.5-295.3c0.7,1,0.5,1.6,0.5,2.2c0,96.9,0,193.8,0,290.7c0,1.7-0.3,2.2-2.1,2.2
		c-21.6-0.1-43.1-0.1-64.7,0c-1.6,0-2.1-0.4-2-2c0.1-10.6,0.1-21.2,0-31.8c0-1.5,0.5-2.4,1.6-3.3c17.2-12.9,34.4-25.9,51.6-38.9
		C358,633.6,358.8,633.3,359.1,632.3z"/>
	<path class="st2" d="M716.6,593.4c-3.5,3.5-6.5,6.5-9.6,9.6c-5.1,5.1-10.2,10.1-15.3,15.3c-1.2,1.3-2.5,1.8-4.3,1.8
		c-20.2-0.1-40.3,0-60.5-0.1c-1.8,0-2.3,0.4-2.3,2.3c0.1,13.5,0,27,0.1,40.5c0,1.8-0.5,2.3-2.3,2.3c-12.2-0.1-24.4-0.1-36.6,0
		c-1.8,0-2.3-0.4-2.3-2.2c0.1-14.3,0.2-28.5,0-42.8c-0.1-13.7,5.9-23.2,18.5-28.7c6.5-2.8,13.2-4.2,20.2-4.2c44.4,0,88.9,0,133.3,0
		c2,0,2.4,0.6,2.4,2.5c-0.1,13.4,0,26.8-0.1,40.3c0,1.8,0.5,2.3,2.3,2.3c18.7,0,37.4,0,56.2,0c4.1,0,8.2,0.4,12.1,1.5
		c13.2,3.7,21.5,14.7,21.6,28.8c0.1,15.2,0,30.3,0.1,45.5c0,1.6-0.5,1.9-2,1.9c-12.3-0.1-24.7-0.1-37,0c-1.6,0-2-0.4-2-2
		c0.1-13.4,0-26.7,0-40.1c0-3.2,0.4-2.8-2.7-2.8c-28.9,0-57.8,0-86.7,0c-3.4,0-2.9,0.4-2.9-2.8c0-22,0-44,0-66
		C716.6,595.5,716.6,594.8,716.6,593.4z"/>
	<path class="st2" d="M508,631.9c-15.1,15.2-29.9,30.2-44.8,45.2c1,0.5,1.8,0.3,2.6,0.3c35,0,70,0,105,0c2.7,0,2.7,0,2.7,2.7
		c0,9.3,0,18.5,0,27.8c0,1.5-0.3,2-2,2c-42,0-84,0-126-0.1c-7.7,0-15.3-1.1-21.7-5.8c-9.2-6.8-12.2-15.5-9-26.2
		c3-9.7,8.6-17.7,15.8-24.8c6.7-6.5,13.2-13.2,19.8-19.9c0.6-0.6,1.2-1,2.1-1c18.1-0.1,36.2-0.3,54.3-0.4
		C507,631.8,507.3,631.8,508,631.9z"/>
	<path class="st2" d="M957.7,620.1c-17.9,0-35.8,0-53.7,0c-3.1,0-2.7-0.3-2.7,2.6c0,13.4,0,26.7,0,40.1c0,1.7-0.3,2.4-2.2,2.3
		c-12.3-0.1-24.7-0.1-37,0c-1.5,0-2-0.3-2-1.9c0.1-14.2-0.2-28.4,0.1-42.6c0.2-12.2,6.7-21,16.9-27c7.5-4.4,15.7-6.4,24.4-6.4
		c24.2,0.1,48.4,0,72.6,0c9.1,0,17.8,2.2,25.4,7.2c8.5,5.6,13.4,13.6,14.5,23.8c0.2,1.7-0.6,1.9-2,1.9
		C993.9,620.1,975.8,620.1,957.7,620.1z"/>
	<path class="st2" d="M916.6,677c17.9,0,35.9,0,53.9,0c2.1,0,2.5-0.6,2.5-2.5c-0.1-13.4,0-26.7-0.1-40.1c0-1.7,0.2-2.4,2.2-2.3
		c12.3,0.1,24.5,0.1,36.8,0c1.7,0,2.2,0.5,2.2,2.2c-0.1,13.8-0.1,27.7,0,41.5c0.1,7.8-2.8,14.4-7.9,20.2
		c-7.2,8.2-16.7,12.1-27.3,13.5c-3.2,0.4-6.3,0.4-9.5,0.4c-22.7,0-45.5,0-68.2,0c-7.8,0-15.3-1.5-22.3-4.8
		c-10.9-5.2-17.1-13.9-18.6-25.9c-0.2-1.5,0.1-2.1,1.9-2.1C880.3,677.1,898.5,677,916.6,677z"/>
	<path class="st2" d="M465.6,620.1c0.2-1.3,0.8-1.6,1.2-2.1c10-10,20-20,30-30c0.9-0.9,1.8-1.3,3.1-1.3c12.7,0.2,25.5-0.1,38.2,0.6
		c7.1,0.4,13.9,2.2,20.2,5.6c8.5,4.5,12.7,11.8,14.4,20.9c0.6,3.1,0.8,6.2,0.8,9.3c0,13.2-0.1,26.4,0,39.6c0,2-0.6,2.4-2.4,2.4
		c-12.2-0.1-24.4-0.1-36.6,0c-2.2,0-2.6-0.7-2.5-2.7c0.1-13.1,0-26.3,0-39.4c0-3.3,0.4-2.9-2.8-2.9
		C508,620.1,486.9,620.1,465.6,620.1z"/>
	<path class="st2" d="M645.1,677.5c19.7,0,39.4,0,59,0c1.7,0,2.2,0.4,2.2,2.2c-0.1,9.5-0.1,19,0,28.4c0,1.6-0.5,1.9-2,1.9
		c-27.6,0-55.2,0.1-82.7-0.1c-11.5-0.1-22-3.6-30.2-12.2c-4.8-5-7.3-11.1-8-18c-0.2-1.7,0.4-2.2,2.1-2.2
		C605.4,677.5,625.3,677.5,645.1,677.5z"/>
	<path class="st2" d="M769.6,620c0.2-1,1-1.5,1.5-2c9.8-9.8,19.6-19.6,29.3-29.4c1-1,1.9-1.3,3.3-1.3c14.1,0,28.3,0,42.4,0
		c1.1,0,2.2,0,3.3,0c0.3,0.7-0.4,0.9-0.8,1.3c-10.1,10.2-20.2,20.3-30.3,30.5c-0.7,0.7-1.4,1.2-2.5,1.2c-15.2,0-30.5,0-45.7,0
		C770,620.1,769.9,620.1,769.6,620z"/>
	<path class="st2" d="M1045.1,587.2c6.2,0,12.5,0,18.7,0c1.5,0,1.9,0.4,1.9,1.9c-0.1,9.8-0.1,19.5,0,29.2c0,1.5-0.4,1.8-1.9,1.8
		c-12.5,0-25.1,0-37.6,0c-1.4,0-1.9-0.4-1.9-1.9c0.1-9.8,0.1-19.5,0-29.2c0-1.5,0.5-1.9,1.9-1.8
		C1032.5,587.3,1038.8,587.2,1045.1,587.2z"/>
	<path class="st2" d="M737,709.9c-6.2,0-12.3,0-18.5,0c-1.4,0-1.9-0.2-1.9-1.8c0.1-9.7,0.1-19.4,0-29.1c0-1.2,0.3-1.7,1.6-1.7
		c12.6,0,25.2,0,37.8,0c1.4,0,1.7,0.5,1.7,1.8c0,9.6,0,19.2,0,28.8c0,1.5-0.4,1.9-1.9,1.9C749.6,709.9,743.3,709.9,737,709.9z"/>
</g>
</svg>
