<?xml version="1.0" encoding="utf-8"?>
<!-- Generator: Adobe Illustrator 25.4.1, SVG Export Plug-In . SVG Version: 6.00 Build 0)  -->
<svg version="1.1" id="Слой_1" xmlns="http://www.w3.org/2000/svg" xmlns:xlink="http://www.w3.org/1999/xlink" x="0px" y="0px"
	 viewBox="0 0 1234.6 1234.6" style="enable-background:new 0 0 1234.6 1234.6;" xml:space="preserve">
<style type="text/css">
	.st0{fill:none;stroke:#FFFFFF;stroke-width:25;stroke-miterlimit:10;}
	.st1{display:none;fill:#FFFFFF;}
	.st2{fill:#FFFFFF;}
</style>
<circle class="st0" cx="617.3" cy="617.3" r="604.8"/>
<g>
	<path class="st1" d="M43.4,903.1c0-180.6,0-361.1,0-541.7c382.6,0,765.2,0,1147.8,0c0,180.6,0,361.2,0,541.7
		C808.6,903.1,426,903.1,43.4,903.1z M316.6,549.8c-0.1-0.1-0.5-0.6-0.7-1.1c-6-15.1-3-14.6-18.8-6.2c-3,1.6-2.6,3.1-1.9,5.8
		c1.6,6.4,3.5,13,3.6,19.5c0.6,27.7,0.4,55.4,0.7,83.2c0.2,16.1-2.7,13.5,15,14c3.2,0.1,4.9-1.4,5-4.6c0-5.8,0.1-11.7,0.1-17.5
		c-0.1-23,0.3-46.1-0.5-69.1c-0.3-8.7,4-12.4,10.3-15.8c1.6-0.9,3.3-1.7,5-2.1c16.8-4.3,29.3-1.9,29.4,20.2
		c0.1,24.9,0.1,49.8,0.3,74.7c0.1,16.2-2,13.7,14.3,14.1c4.9,0.1,6.2-1.7,6.2-6.4c-0.2-27.1-0.1-54.2-0.2-81.3
		c0-13.7,2.6-17.3,15.8-21.4c2.1-0.7,4.3-1.2,6.5-1.5c11.7-1.6,19.1,3.8,20.6,15c0.4,2.8,0.3,5.7,0.3,8.5c0,24.9,0,49.8,0.1,74.7
		c0.1,12.9,0.3,12.5,13.2,12.5c6.3,0,7.8-2.5,7.8-8.2c-0.3-18.8,0-37.6-0.3-56.4c-0.2-13.7-0.3-27.5-1.7-41.2
		c-1.5-14.2-10.8-21.5-24.9-22.7c-14.1-1.2-25.6,4.8-36.7,11.9c-3.4,2.2-5,2.1-7.8-1.2c-3.2-3.7-7.4-7.2-11.8-8.9
		c-8.1-3-16.8-3.1-24.9,0.4C332.5,542.1,324.8,546,316.6,549.8z M732.3,553.3c3.9-1.3,7-2.5,10.2-3.4c4.5-1.2,6.5-4.4,5.9-8.6
		c-0.7-4.3-4.2-6.9-8.4-6.1c-5.7,1.1-11.5,2.6-16.5,5.4c-3.7,2.1-6,2.4-9.7,0.6c-23.2-11.3-54.1-3.7-68.5,16.7
		c-9.4,13.1-9.4,29.5,0.7,42.1c4.4,5.5,10.2,9.9,15.5,15c-0.4,0.3-1.2,1.1-2.2,1.8c-2.2,1.8-4.4,3.5-6.6,5.3
		c-4.8,3.7-6.6,8.7-5.6,14.5c1.1,5.9,5,10,10.8,11.1c12.1,2.3,24.2,4.3,36.4,5.9c9.3,1.2,18.5,2.2,26.4,7.8
		c10,7.1,10.6,18.7,1.4,26.8c-12.4,11-37.3,13.6-51.4,4.9c-5.3-3.2-9.4-7.8-8.2-15c1.1-6.2-2.8-9-7.8-10.5
		c-8.9-2.5-15.5,3.2-15.2,13.3c0.4,12.4,8.5,20,18.8,23.7c24.7,8.8,49.4,11.2,73.8-2.4c19.5-10.9,20.3-33.3,11.8-46.5
		c-8.7-13.5-22.2-17.3-37.1-18c-10.9-0.6-21.8-0.6-32.7-1.3c-2.3-0.2-4.4-2.5-6.7-3.8c1.8-2,3.2-5.1,5.4-5.8
		c7-2.3,14.3-4.6,21.7-5.4c13-1.4,24.4-5.8,33.8-14.8c11.2-10.8,16.2-23.7,11-39C737.8,562.9,735.1,558.8,732.3,553.3z
		 M1083.9,661.1c3.4,1.3,5.7,2.1,7.8,3c28.5,12.3,58.1-1.8,65.4-30.8c4.5-17.8,4.8-35.6,1.8-53.5c-2.8-17.1-9.8-31.5-26.7-39.2
		c-15.3-7-29.2-2.9-42.6,5c-3,1.8-6,3.7-9.2,5.7c-2.2-3.7-3.8-7.1-6.1-9.8c-1.4-1.7-4.7-3.9-5.9-3.3c-5,2.6-9.6,6-14.2,9.4
		c-0.2,0.1,0.7,1.7,1,2.7c2.1,7.1,5.5,14,6.1,21.2c1.1,12.5,0.5,25,0.6,37.6c0.1,31.9-0.1,63.9,0.4,95.8c0.3,16.5,0.8,16.4,17,11.7
		c3.7-1.1,4.8-2.9,4.7-6.5c-0.1-12.3-0.1-24.6-0.1-36.9C1083.9,669.4,1083.9,665.9,1083.9,661.1z M148.1,549.1
		c-8.1-4.1-14.8-9.2-22.1-10.9c-28.2-6.5-49.9,14.1-52.4,42.3c-1.4,15.8-0.6,32,0.3,47.9c1.2,22.2,19.4,42.5,44.7,40.3
		c11.4-1,21.6-4.3,30.8-11c0.7,1,1.2,1.4,1.4,1.9c3.8,10.2,3.8,10.2,13.1,4.7c0.5-0.3,1-0.6,1.6-0.9c3.9-1.9,5.2-4.6,4.8-9.3
		c-1-12.1-1.5-24.2-1.6-36.3c-0.3-42.5-0.3-84.9-0.7-127.4c-0.1-14.4-0.4-14.2-14.8-10.4c-3.8,1-5.5,2.5-5.3,6.6
		c0.2,9.5,0.1,19,0.1,28.5C148.1,526.4,148.1,537.6,148.1,549.1z M1034.6,536.9c-6.5,1.2-11.6,2.8-16.7,3c-6.3,0.3-7.4,3.4-7.4,9
		c0.3,27.9,0.3,55.8,0.1,83.8c0,2.7-1.2,6.6-3.2,7.7c-5.7,3.3-11.8,6.9-18.1,7.9c-17.4,2.8-24-1.5-24.1-18.3
		c-0.1-10.5-0.1-21-0.1-31.5c-0.1-18.2-0.3-36.4-0.1-54.6c0.1-5.5-1.9-6.8-6.9-5.6c-3.9,0.9-8.1,1.1-11.8,2.4
		c-1.9,0.7-4.3,3.3-4.3,5c-0.1,31.2-0.3,62.3,0.3,93.5c0.3,14,10,25.7,22.3,28.3c14.9,3.1,29,1.6,41.5-8c1.7-1.3,3.4-2.6,5.7-4.3
		c2.2,3.8,4.1,7.2,6.1,10.7c1.9,3.2,4.1,4.7,7.9,2.3c3.9-2.5,8.3-4.2,12.3-6.5c2.9-1.7,4.1-3.6,2.5-7.5c-2.4-5.6-5-11.7-5.2-17.6
		c-0.8-17.1-0.6-34.3-0.7-51.5C1034.6,569.6,1034.6,554.1,1034.6,536.9z M244,606.7c0,0,0-0.1,0-0.1c11.1,0,22.3-0.2,33.4,0.1
		c5.6,0.2,7.3-2.5,6.9-7.2c-0.8-8.7-1.2-17.4-3.1-25.9c-2.4-10.8-6.8-21-16.2-27.6c-27.2-19.1-63.5-8-75.8,22.9
		c-8,20.4-8.3,41.1-2.1,61.9c4.6,15.6,14.6,26.8,29.8,33.1c18.1,7.4,35.9,6,53.6-1.5c11.7-5,12-5.6,6.9-17.1
		c-0.2-0.4-0.3-0.8-0.5-1.1c-1.2-2.8-2.7-3.3-5.7-1.9c-5.2,2.6-10.6,4.9-16.1,6.9c-15.7,5.7-33.5,0.6-42.3-13.4
		c-4-6.4-5.5-14.6-7.7-22.1c-1.5-4.9,0.9-7,6-6.9C222.1,606.9,233.1,606.7,244,606.7z M819.8,605.6c-1.2,10.5,2.7,21.9,7.5,33.1
		c7.7,18,21.3,28.3,40.5,30.4c19.2,2.1,36.8-3.3,47-20.2c17.1-28.2,16.5-57.9,2.2-87.3c-13.4-27.4-58.6-33.2-80.7-8.1
		C824,567.7,819.3,584.9,819.8,605.6z M557,534.6c-0.1,0.5-0.3,1-0.4,1.5c-11.5,0-18.3,1.8-27.2,7c-19.8,11.6-21,42.4-2,54.1
		c5,3,10.3,5.5,15.6,8c8.2,3.9,17,6.8,24.7,11.5c4.3,2.6,8.7,7.3,10.1,11.9c3.5,11.4-5.2,21.2-18.3,22.2c-11.1,0.8-21.7-1.1-32-5.3
		c-10.8-4.5-10.7-4.4-16.1,5.9c-1.8,3.4-1.6,5.7,2.1,7.3c22.8,10,46,14.4,69.5,2.4c11.4-5.8,18.1-15.5,17.9-28.8
		c-0.2-13.4-5.9-23.8-18.4-29.7c-8.6-4-17.4-7.7-26-11.6c-3.3-1.5-6.6-3-9.7-4.9c-8.4-4.9-12-12-10.3-19.5
		c1.6-7.1,9.3-13.6,18.3-13.4c8.3,0.3,16.8,1.8,24.9,4c9.6,2.6,9.2,3,14-6c2.4-4.5,1.1-7-3.2-8.2C579.2,540.2,568,537.4,557,534.6z
		 M782.8,558.4c-1.4-4.4-2.2-7.5-3.3-10.5c-3.5-9.8-6.1-10.8-14.8-6c-0.5,0.3-1.1,0.5-1.7,0.8c-5.2,2.3-5.4,5.5-3.3,10.6
		c2.6,6.4,5.1,13.4,5.3,20.2c0.7,26.2,0.6,52.4,0.7,78.7c0,16.9-2.1,13.4,14,13.7c4.3,0.1,6.1-1.5,6.1-6
		c-0.2-22.8,0.6-45.6-0.4-68.3c-0.5-10.5,2.3-18,9.7-25.1c7.2-6.8,14.1-12.3,25.1-7.2c2.6-5,5.1-9.5,7.4-14.2c1.6-3.3,0.3-5-3.3-6
		c-11.6-3.2-21.5-0.3-30.1,7.8C790.5,550.3,787.2,554,782.8,558.4z M569.3,825c0-6.2,0.2-12.5-0.1-18.7c-0.1-1.4-1.6-2.7-2.4-4.1
		c-1.1,1.3-3.1,2.5-3.2,3.9c-0.5,4.4,0,8.9-0.4,13.3c-0.2,2.1-1.6,4.2-2.4,6.2c-2.7-1.3-6.1-2.1-7.7-4.2c-1.8-2.4-1.5-6.3-3.1-9
		c-2.1-3.9-5-7.4-7.8-10.8c-0.4-0.5-2.7,0.6-4.1,0.9c0.5,1.4,0.7,2.9,1.4,4.1c1.6,2.8,3.9,5.3,5.2,8.2c2,4.5,3.4,9.3,4.8,13.2
		c-1.8,4.5-3.6,8.7-5.1,13c-1,2.8-1.5,6-2.9,8.6c-0.8,1.5-3.1,2.1-4.7,3.1c-0.9-1.5-2.2-2.8-2.7-4.4c-4.5-14-8.7-28.1-13.3-42.1
		c-0.6-1.8-3-3.6-4.9-4c-0.9-0.2-3.2,2.5-3.7,4.3c-4.3,13.5-8.2,27.1-12.6,40.5c-0.7,2.1-3.6,3.4-5.5,5.1c-1-1.9-2.7-3.8-2.8-5.8
		c-0.4-11.9-0.5-23.8-0.5-35.7c0-8.1,0-8.5-8.4-8.6c-4.7-0.1-9.3,0.2-13.9,0.1c-4-0.1-5.4,2-5.3,5.7c0,5.7,0.7,11.4-0.2,16.9
		c-1.3,8.5-1.5,18.3-6,24.9c-3.5,5-4.8,9.1-4.5,14.2c0.2,3.2,1.9,9.2,2.5,9.1c5.9-0.6,3.7-5.5,3.7-9c0-4.3,1.5-5.8,5.7-5.6
		c5.2,0.2,10.5-0.2,15.8-0.2c9.9-0.1,9.7,0,9.9,9.6c0,1.9,1.7,5.1,3,5.3c3.7,0.5,3.4-2.5,3.5-5.4c0-2.8,0.7-7.8,2-8.1
		c7.1-1.8,7.3-7.5,8.1-12.7c0.6-3.7,2.5-5,6-5.4c11.9-1.4,12.7-0.9,15.7,10.8c0.5,2,1.6,4.9,3.1,5.4c7.8,2.5,15.7,1.4,17.7-7.8
		c1-4.7,1.9-9.6,4.1-13.9c1.1-2.1,4.7-3,7.2-4.4c1,2.1,2.7,4.2,2.9,6.3c0.5,5-0.1,10.1,0.3,15.1c0.1,1.7,2,3.2,3,4.8
		c1.1-1.6,3.1-3.1,3.3-4.8c0.4-4.6-0.2-9.3-0.1-13.9c0-3.1-1-6.9,3.7-7.7c4.5-0.8,6.1,2.5,7.2,5.8c1.6,4.8,2.8,9.7,4.2,14.6
		c1.3,4.5,4.2,6.9,8.9,6.6c1-0.1,2.4-1.3,2.9-2.3c0.3-0.7-0.3-2.7-0.9-2.9c-5-1.7-5.2-6.2-6.5-10.2c-1.6-4.9-3.6-9.7-5.4-14.6
		c1.3-4.2,2.4-8.9,4.1-13.4c1.1-2.9,3-5.4,4.5-8.1c0.8-1.5,1.6-3,2.5-4.5c-1.8-0.2-3.9-1.1-5.3-0.4c-1.8,0.8-3.7,2.7-4.5,4.5
		c-1.7,3.8-3.1,7.9-4,12C579.7,824.5,577,827.3,569.3,825z M469.9,601.6c0.2,0,0.4,0,0.6,0c0,16.7,0.4,33.5-0.1,50.2
		c-0.5,14.3,0.1,12.7,14.6,12.9c4.5,0.1,6.2-2,6.1-6.2c-0.1-6.7-0.3-13.3-0.3-20c-0.1-28.5,0.1-56.9-0.2-85.4
		c-0.1-13.7,2.4-13.4-14.1-13.3c-5,0-6.7,1.5-6.7,6.5C470.1,564.8,469.9,583.2,469.9,601.6z M988.9,422.5
		c15.1,14.2,29.4,27.8,43.8,41.4c0.5-0.3,1.1-0.6,1.6-0.9c0-5,0.4-10-0.2-14.9c-0.3-2.7-1.6-5.9-3.5-7.8c-11.6-11.2-23.5-22-35.4-33
		c-6.7-6.1-7-6.3-13.8-0.3c-11.1,9.8-21.2,20.6-32.9,29.5c-10.2,7.7-7,17-5.8,27.1C958,450.1,973.2,436.5,988.9,422.5z
		 M1034.3,502.5c0-5.6,0.1-9.4,0-13.1c-0.2-4.1,0.2-8.1-3.6-11.5c-12.4-11.3-24.5-22.9-36.4-34.7c-3.3-3.3-5.7-4.5-9.5-1.1
		c-14,12.9-28.1,25.6-42.1,38.5c-0.8,0.7-1.4,2.1-1.4,3.2c-0.1,5.6-0.1,11.1-0.1,18.1c2.9-2,4.7-2.9,6.1-4.1
		c5.9-5.2,11.6-10.7,17.5-15.9c6.8-6,13.7-11.9,20.5-17.9c2.9-2.6,5.2-2,7.8,0.5c6.1,5.9,12.3,11.6,18.6,17.4
		C1018.8,488.3,1025.9,494.7,1034.3,502.5z M311.8,722.4c-0.3-0.7-0.6-1.5-1-2.2c-6.4,0-12.8,0.2-19.2-0.1c-4.7-0.2-6.4,1.5-6.3,6.3
		c0.4,15.1,0.4,30.3,0.5,45.4c0,3.5,1.7,4.6,4.9,4.6c6.7,0,13.4-0.2,20,0.1c9.3,0.4,14.4-3,15.4-12.1c1.2-11,2.2-22.1,2.5-33.1
		c0.2-7.6,5.5-5.4,9.4-5.8c4.3-0.5,6.6,1.1,6.5,6.1c-0.3,13.1-0.2,26.3,0,39.4c0,1.8,1.7,3.5,2.7,5.2c1.2-1.8,3.3-3.5,3.3-5.3
		c0.2-15.3-0.1-30.7,0-46.1c0-3.8-1.7-5-5.1-4.9c-5,0.1-10.1,0.4-15.1-0.1c-6.5-0.7-7.7,2.5-7.5,8c0.3,8.5,0,17-0.2,25.5
		c-0.4,13.5-4.4,17.4-17.4,17.1c-15.7-0.3-12.3,1.5-13.2-14.2c-0.3-4.5,1.2-6.9,6.2-6.5c2.4,0.2,4.9,0.2,7.2-0.4
		c1.1-0.3,1.9-2,2.8-3.1c-1-0.8-1.9-2.1-3-2.2c-2.6-0.3-5.3-0.3-7.9-0.1c-4,0.3-5.4-1.6-5.3-5.4c0.3-13.8-2.7-12.7,12.2-13
		c1.2,0,2.6,0.3,3.6-0.2C309.3,724.9,310.5,723.6,311.8,722.4z M369,758.8c-0.6-0.1-1.2-0.2-1.8-0.2c-0.2-3-0.5-5.9-0.5-8.8
		c-0.1-8.5-0.1-17-0.3-25.5c0-1.3-1.3-2.5-1.9-3.8c-1.2,1.1-2.5,2.1-3.5,3.4c-0.5,0.7-0.3,2-0.3,3c0,14.8-0.1,29.5,0.1,44.2
		c0,1.7,2.1,3.4,3.2,5.1c1.6-1.2,4-2,4.7-3.6c5.1-10.3,9.8-20.8,14.8-31.2c0.9-1.9,2.4-3.5,3.6-5.3c0.5,0.2,1,0.5,1.5,0.7
		c0,11.7-0.1,23.4,0.1,35c0,1.4,1.9,2.7,2.9,4.1c1.2-1.3,3.3-2.6,3.3-3.9c0.1-15.5,0-31.1-0.4-46.6c0-1.8-1.8-3.5-2.8-5.2
		c-2,1.3-4.8,2.1-5.9,3.9c-2.6,4.1-4.4,8.6-6.5,13C375.9,744.3,372.4,751.5,369,758.8z M531.8,758.9c-0.4-0.1-0.9-0.3-1.3-0.4
		c-0.2-1.3-0.6-2.7-0.6-4c-0.2-9.7-0.1-19.4-0.6-29c-0.1-1.8-2.2-3.6-3.4-5.3c-0.9,1.7-2.6,3.4-2.7,5.1c-0.2,15.4-0.1,30.7,0.1,46.1
		c0,1.6,1.7,4.6,2.4,4.5c1.9-0.1,4.3-1.1,5.5-2.6c1.6-2,2.3-4.7,3.5-7c5.2-10.8,10.4-21.6,15.7-32.5c0.5,0.1,1,0.2,1.5,0.3
		c0,2.5,0,5.1,0,7.6c0,9.9-0.2,19.8,0.1,29.7c0,1.6,2,3.1,3.2,4.7c1.1-1.6,3.1-3.1,3.1-4.7c0.2-14.8,0.2-29.5-0.1-44.3
		c0-2.4-1.2-6.2-2.8-6.9c-4.1-1.6-6,2-7.5,5.2c-2.1,4.6-4.3,9.2-6.4,13.7C538.2,745.7,535,752.3,531.8,758.9z M270.8,746.7
		c7.2-5.6,7.4-13.2,4.5-20c-2.8-6.5-10-6.6-16.4-6.3c-2.2,0.1-4.4,0.2-6.7,0.2c-3.4,0-4.5,1.8-4.5,5c0.1,15.5,0,31.1,0.2,46.7
		c0,1.4,1.6,4.1,2.4,4.1c6.8-0.1,14.2,0.8,20.3-1.6C282,770.2,282,756.1,270.8,746.7z M453.8,830.6c-1.9-7.5-3.1-14.4-5.4-21
		c-2-5.6-6.9-8.2-12.8-8.5c-5.8-0.3-11.2,1.3-14,6.7c-7.1,14.3-7.5,29-0.8,43.7c2.7,5.9,7.9,8,13.9,7.8c5.7-0.2,11.1-1.9,13.2-7.8
		C450.4,844.7,451.9,837.5,453.8,830.6z M478.2,748.4C478.2,748.4,478.2,748.4,478.2,748.4c0.1,7.9-0.1,15.8,0.2,23.7
		c0,1.5,1.9,2.8,2.9,4.3c1.2-1.4,3-2.6,3.6-4.2c0.6-1.8,0.2-4,0.2-6c0.2-17.8-5.1-16.8,17-16.3c0.2,0,0.5-0.1,0.6,0
		c1.4,1.4,3.9,2.8,4.1,4.4c0.6,5.6,0.1,11.3,0.5,16.9c0.1,1.8,1.7,3.4,2.6,5.1c1.2-1.7,3.3-3.4,3.3-5.1c0.2-14.1,0.1-28.3-0.3-42.4
		c-0.1-2.9,2.4-8.3-2.9-8.3c-5.2,0-2.8,5.2-2.9,8.2c-0.5,16-0.4,15.9-16.7,15.4c-4.7-0.1-6-2.3-5.9-6.4c0.1-4,0.3-8.1-0.2-12.1
		c-0.2-2-1.9-3.8-2.9-5.6c-1.1,2-3,3.9-3.1,6C477.9,733.5,478.2,740.9,478.2,748.4z M342.2,830C342.2,830,342.3,830,342.2,830
		c0.1,7.7-0.1,15.4,0.2,23c0.1,1.7,1.8,3.3,2.7,5c1.1-1.8,3.1-3.5,3.1-5.3c0.3-10.5,0.2-21,0.3-31.5c0.1-13.6,0.1-13.4,14.1-13.4
		c4.4,0,6.1,1.2,6,5.9c-0.2,12.9-0.1,25.9,0.2,38.8c0,1.9,1.8,3.7,2.8,5.6c1.2-2,3.3-3.9,3.3-5.9c0.1-15.2-0.3-30.3-0.3-45.5
		c0-3.7-1.5-4.5-4.7-4.4c-7.3,0.1-14.6,0.3-21.8-0.1c-5-0.2-6.2,1.9-6,6.5C342.4,815.9,342.2,822.9,342.2,830z M395.8,802.4
		c-2.2,0-4,0.1-5.8,0c-3.5-0.2-5.3,1-5.2,4.8c0.1,15.8,0,31.6,0.1,47.3c0,1.3,1.6,2.7,2.4,4c1.2-1.2,3.3-2.4,3.5-3.8
		c0.5-3.8,0.5-7.7,0.2-11.5c-0.6-5.8,1.3-8.6,7.5-8.7c5.1-0.1,9.9-1.6,13-6.4c4.2-6.5,3.7-13.1,0.4-19.5
		C408.4,801.6,401.8,802,395.8,802.4z M451.4,743.8c0-4.8,0.2-8.6,0-12.4c-0.2-4.3,1.8-5.8,5.8-5.8c3.6,0,7.3,0.1,10.9-0.3
		c1.2-0.1,2.2-1.8,3.2-2.8c-1.1-0.8-2.2-2.3-3.4-2.3c-5.7-0.3-11.3-0.1-17-0.3c-4-0.2-5.8,1-5.7,5.4c0.1,15.4-0.2,30.7-0.1,46.1
		c0,1.6,1.7,4.7,2.6,4.7c7.2,0.2,14.5,0,21.8-0.4c0.9,0,1.6-1.8,2.5-2.8c-1-0.8-1.9-2.2-2.9-2.3c-3.6-0.4-7.3-0.8-10.9-0.3
		c-5.3,0.7-6.5-1.6-6.6-6.4c-0.3-13-0.4-12.9,12.4-14.3c1.5-0.2,2.8-2,4.2-3.1c-1.3-0.9-2.6-2.4-4-2.5
		C460.1,743.6,456.1,743.8,451.4,743.8z M594.9,722.2c-0.3-0.8-0.6-1.5-0.9-2.3c-7.8,0-15.6-0.1-23.3,0.2c-0.9,0-2.5,2.5-2.5,3.9
		c-0.2,15.9-0.2,31.9,0,47.8c0,1.3,1.3,3.8,2,3.8c7.4,0.2,14.9,0.2,22.3-0.1c0.8,0,1.9-1.9,2.1-3c0.1-0.6-1.3-1.9-2.2-2.2
		c-1.3-0.5-2.8-0.4-4.2-0.4c-14.6-0.2-14.6-0.2-13.9-14.8c0-0.2,0-0.4,0-0.6c-0.2-3.5,1.4-5.2,5-5.2c2.8,0.1,5.7,0.2,8.4-0.3
		c1.2-0.2,2.2-1.8,3.3-2.7c-1.1-0.9-2.1-2.3-3.3-2.5c-2.8-0.4-5.6-0.3-8.5-0.2c-3.6,0.1-4.9-1.3-5.1-5c-0.6-13.2-0.7-13.2,12.4-13.3
		c1.4,0,3,0.2,4.2-0.3C592.2,724.5,593.5,723.2,594.9,722.2z M435.7,748.5c-0.1,0-0.2,0-0.3,0c0-8.1,0.2-16.2-0.2-24.2
		c0-1.4-2.1-2.7-3.2-4c-0.9,1.3-2.6,2.5-2.7,3.9c-0.3,5.8-0.1,11.7-0.4,17.5c-0.1,1.6-1,4.3-1.9,4.5c-4.4,0.9-9.3,2.3-13.4,1.2
		c-2.1-0.6-3.7-5.8-4.2-9.1c-0.8-4.5-0.1-9.3-0.5-13.8c-0.1-1.3-2-2.3-3.1-3.5c-0.8,1.2-2.3,2.3-2.4,3.5c-0.3,4.2-0.2,8.5-0.2,12.7
		c-0.2,13.5,4.6,17.9,18.1,16.5c0.8-0.1,1.6-0.2,2.4-0.5c4.2-1.5,5.5,0.5,5.4,4.4c-0.1,4.6-0.2,9.3,0.3,13.9c0.2,1.7,2,3.2,3.1,4.8
		c1.1-1.6,3.1-3.1,3.2-4.7C435.9,763.8,435.7,756.1,435.7,748.5z M214,720.2c-0.9,0-1.7,0-2.5-0.1c-0.2,2.2-1.1,4.7-0.4,6.4
		c5,11.7,6.5,24.9,15.2,35c0.5,0.6,0.4,1.9,0.2,2.8c-1.1,5.9-5.1,8.2-11,6.7c-1.5-0.4-3.2,0.6-4.9,1c1.1,1.5,2,3.9,3.5,4.5
		c7.6,3,15-1,17.4-9.3c3.6-12.8,7.2-25.6,10.4-38.5c0.7-2.7-0.1-8.1-0.4-8.2c-5-0.3-4.2,4.2-5.1,7.2c-2.5,8.6-4.8,17.3-7.2,25.9
		c-0.6,0-1.1,0.1-1.7,0.1C223,742.6,218.5,731.4,214,720.2z M481.3,514.1c7.7,0.1,14.5-5.8,14.8-13c0.3-8-6.1-14.5-14.4-14.6
		c-7.8-0.1-14.1,5.7-14.3,13.3C467.1,508,473,514,481.3,514.1z"/>
	<path class="st2" d="M316.6,549.8c8.3-3.9,15.9-7.8,23.8-11.1c8.1-3.4,16.8-3.4,24.9-0.4c4.5,1.7,8.7,5.2,11.8,8.9
		c2.8,3.3,4.4,3.5,7.8,1.2c11.1-7.2,22.6-13.1,36.7-12c14.1,1.2,23.4,8.5,24.9,22.7c1.5,13.6,1.5,27.4,1.7,41.2
		c0.3,18.8,0.1,37.6,0.3,56.4c0.1,5.7-1.4,8.2-7.8,8.2c-12.9,0-13.1,0.4-13.2-12.5c-0.2-24.9-0.1-49.8-0.1-74.7
		c0-2.8,0.1-5.7-0.3-8.5c-1.5-11.2-8.9-16.5-20.6-15c-2.2,0.3-4.4,0.8-6.5,1.5c-13.2,4.1-15.8,7.7-15.8,21.4c0,27.1,0,54.2,0.2,81.3
		c0,4.7-1.3,6.5-6.2,6.4c-16.3-0.4-14.1,2.2-14.3-14.1c-0.2-24.9-0.3-49.8-0.3-74.7c-0.1-22.1-12.5-24.5-29.4-20.2
		c-1.7,0.5-3.4,1.2-5,2.1c-6.3,3.4-10.6,7.1-10.3,15.8c0.9,23,0.5,46.1,0.5,69.1c0,5.8-0.1,11.7-0.1,17.5c0,3.3-1.7,4.7-5,4.6
		c-17.8-0.4-14.9,2.2-15-14c-0.3-27.7-0.2-55.4-0.7-83.2c-0.1-6.5-2.1-13.1-3.6-19.5c-0.7-2.7-1.1-4.3,1.9-5.8
		c15.9-8.4,12.9-8.9,18.8,6.2C316,549.2,316.5,549.7,316.6,549.8z"/>
	<path class="st2" d="M732.3,553.3c2.8,5.5,5.5,9.7,7,14.2c5.1,15.4,0.2,28.3-11,39c-9.3,9-20.8,13.3-33.8,14.8
		c-7.3,0.8-14.6,3-21.7,5.4c-2.2,0.7-3.6,3.8-5.4,5.8c2.2,1.3,4.3,3.7,6.7,3.8c10.9,0.8,21.8,0.8,32.7,1.3
		c14.9,0.8,28.4,4.5,37.1,18c8.5,13.2,7.7,35.6-11.8,46.5c-24.3,13.7-49.1,11.2-73.8,2.4c-10.4-3.7-18.5-11.3-18.8-23.7
		c-0.3-10.1,6.3-15.8,15.2-13.3c5,1.4,8.8,4.3,7.8,10.5c-1.2,7.2,2.9,11.7,8.2,15c14.1,8.7,39,6,51.4-4.9c9.2-8.2,8.6-19.7-1.4-26.8
		c-7.9-5.6-17.1-6.7-26.4-7.8c-12.2-1.5-24.4-3.5-36.4-5.9c-5.7-1.1-9.7-5.2-10.8-11.1c-1-5.8,0.8-10.8,5.6-14.5
		c2.2-1.7,4.4-3.5,6.6-5.3c0.9-0.7,1.8-1.5,2.2-1.8c-5.3-5.1-11.1-9.5-15.5-15c-10.1-12.6-10.1-29-0.7-42.1
		c14.5-20.3,45.3-27.9,68.5-16.6c3.7,1.8,6,1.5,9.7-0.6c4.9-2.8,10.8-4.3,16.5-5.4c4.2-0.8,7.8,1.8,8.4,6.1c0.6,4.2-1.3,7.4-5.9,8.6
		C739.4,550.8,736.2,552,732.3,553.3z M690.6,608c15.1,0.2,30.3-13.9,30.2-29c0-13.6-11.2-29.7-28.5-29.6
		c-16.9,0.1-32.1,15.3-32,28.4C660.4,593.2,672.5,607.4,690.6,608z"/>
	<path class="st2" d="M1083.9,661.1c0,4.7,0,8.3,0,11.8c0,12.3,0,24.6,0.1,36.9c0,3.5-1.1,5.4-4.7,6.5c-16.2,4.8-16.7,4.9-17-11.7
		c-0.5-31.9-0.3-63.9-0.4-95.8c-0.1-12.5,0.5-25.1-0.6-37.6c-0.6-7.2-4-14.2-6.1-21.2c-0.3-0.9-1.2-2.5-1-2.7
		c4.6-3.3,9.2-6.8,14.2-9.4c1.2-0.6,4.5,1.6,5.9,3.3c2.3,2.7,3.8,6.1,6.1,9.8c3.2-2,6.1-3.9,9.2-5.7c13.5-7.9,27.4-11.9,42.6-5
		c16.9,7.7,23.9,22.1,26.7,39.2c2.9,17.9,2.6,35.7-1.8,53.5c-7.3,29-36.9,43.1-65.4,30.8C1089.6,663.2,1087.3,662.5,1083.9,661.1z
		 M1137.2,605.9c-0.5-8.2-0.6-14-1.2-19.8c-0.3-3.4-1.1-6.8-1.8-10.1c-3.5-14.9-15.7-22.1-30.2-17.5c-4.5,1.4-8.7,4.2-13,6.4
		c-4.9,2.4-6.8,6.3-6.7,11.8c0.2,16.1,0.3,32.2,0.2,48.4c-0.1,17.1-0.2,17.1,16.2,22.1c18.4,5.6,30.7-1.6,34.2-20.6
		C1136.3,619,1136.6,611.2,1137.2,605.9z"/>
	<path class="st2" d="M148.1,549.1c0-11.5,0-22.7,0-33.9c0-9.5,0.1-19-0.1-28.5c-0.1-4,1.6-5.6,5.3-6.6c14.3-3.8,14.6-3.9,14.8,10.4
		c0.4,42.5,0.3,84.9,0.7,127.3c0.1,12.1,0.6,24.2,1.6,36.3c0.4,4.6-0.9,7.3-4.8,9.3c-0.5,0.3-1.1,0.6-1.6,0.9
		c-9.3,5.5-9.3,5.5-13.1-4.7c-0.2-0.5-0.7-0.9-1.4-1.9c-9.1,6.7-19.4,10.1-30.8,11c-25.3,2.1-43.5-18.2-44.7-40.3
		c-0.9-15.9-1.7-32.1-0.3-47.9c2.5-28.2,24.1-48.8,52.4-42.3C133.3,539.9,139.9,545,148.1,549.1z M148.6,603.2c-0.1,0-0.3,0-0.4,0
		c0-7.9,0.1-15.8,0-23.7c-0.2-18.8-1.9-20.8-20.7-24.6c-1-0.2-2-0.4-3-0.5c-14.9-1.3-25.6,6.2-29,20.8c-1.4,6.3-2.4,12.8-2.4,19.2
		c-0.2,14.9-1.1,30,4,44.4c2.9,8,8.1,13.8,16.9,14.5c11.4,0.9,22.1-1.9,31.3-9c1.6-1.3,3-4,3.1-6
		C148.7,626.7,148.6,614.9,148.6,603.2z"/>
	<path class="st2" d="M1034.6,536.9c0,17.2-0.1,32.7,0,48.3c0.1,17.2-0.1,34.3,0.7,51.5c0.3,6,2.9,12,5.2,17.6
		c1.6,3.8,0.4,5.8-2.5,7.5c-4,2.3-8.4,4-12.3,6.5c-3.8,2.4-6,0.9-7.9-2.3c-2-3.4-3.9-6.8-6.1-10.7c-2.2,1.7-3.9,3-5.7,4.3
		c-12.5,9.6-26.6,11.2-41.5,8c-12.4-2.6-22.1-14.3-22.3-28.3c-0.6-31.2-0.4-62.3-0.3-93.5c0-1.7,2.4-4.3,4.3-5
		c3.7-1.4,7.9-1.5,11.8-2.4c4.9-1.2,6.9,0.1,6.9,5.6c-0.2,18.2,0,36.4,0.1,54.6c0,10.5,0,21,0.1,31.5c0.1,16.8,6.7,21,24.1,18.3
		c6.3-1,12.4-4.6,18.1-7.9c1.9-1.1,3.2-5,3.2-7.7c0.2-27.9,0.2-55.8-0.1-83.8c-0.1-5.6,1.1-8.7,7.4-9
		C1023,539.7,1028.1,538.2,1034.6,536.9z"/>
	<path class="st2" d="M244,606.7c-10.9,0-21.9,0.1-32.8-0.1c-5.1-0.1-7.5,2-6,6.9c2.2,7.5,3.6,15.6,7.7,22.1
		c8.8,14,26.6,19.1,42.3,13.4c5.5-2,10.9-4.3,16.1-6.9c2.9-1.5,4.5-0.9,5.7,1.9c0.2,0.4,0.3,0.8,0.5,1.1c5,11.5,4.8,12.1-6.9,17.1
		c-17.7,7.5-35.5,9-53.6,1.5c-15.2-6.2-25.2-17.5-29.8-33.1c-6.2-20.8-5.9-41.5,2.1-61.9c12.2-30.9,48.6-42,75.8-22.9
		c9.4,6.6,13.8,16.9,16.2,27.6c1.9,8.4,2.3,17.2,3.1,25.9c0.5,4.8-1.3,7.4-6.9,7.2c-11.1-0.3-22.2-0.1-33.4-0.1
		C244,606.6,244,606.7,244,606.7z M257.1,590.7c5.4,1.1,5.9-1.6,4.7-8.2c-1-5.7-2.9-11.4-5.5-16.5c-8.5-16-29.4-17.9-41.6-4.3
		c-5.9,6.5-8,14.2-9.3,22.5c-0.8,4.7,0.7,6.6,5.6,6.5C225.6,590.6,240.3,590.7,257.1,590.7z"/>
	<path class="st2" d="M819.8,605.6c-0.5-20.7,4.1-37.9,16.5-52c22-25.2,67.2-19.4,80.7,8.1c14.4,29.4,14.9,59.1-2.2,87.3
		c-10.2,16.9-27.8,22.3-47,20.2c-19.2-2.1-32.8-12.4-40.5-30.4C822.5,627.5,818.6,616.1,819.8,605.6z M906.1,606.4
		c-1.5-10.7-2.3-19.6-4-28.2c-2.9-14.2-14.5-24.3-27.6-24.7c-12.9-0.3-23.2,7.7-27.8,21.9c-5.9,18.7-5.6,37.4-0.2,56
		c3.8,13.2,13.2,21,25.3,21.7c13.2,0.8,23-4.8,28-18.5C903.3,625.3,904.3,614.9,906.1,606.4z"/>
	<path class="st2" d="M557,534.6c11.1,2.8,22.2,5.5,33.2,8.5c4.4,1.2,5.6,3.7,3.2,8.2c-4.7,9-4.4,8.5-14,6c-8.1-2.2-16.5-3.7-24.9-4
		c-8.9-0.3-16.7,6.2-18.3,13.3c-1.7,7.5,1.9,14.5,10.3,19.5c3.1,1.8,6.4,3.4,9.7,4.9c8.7,3.9,17.4,7.5,26,11.6
		c12.5,5.9,18.2,16.2,18.4,29.7c0.2,13.3-6.5,23-17.9,28.8c-23.4,12-46.6,7.6-69.5-2.4c-3.7-1.6-3.8-4-2.1-7.3
		c5.5-10.3,5.4-10.4,16.1-5.9c10.2,4.3,20.9,6.1,32,5.3c13.2-0.9,21.8-10.7,18.3-22.2c-1.4-4.7-5.8-9.3-10.1-11.9
		c-7.7-4.7-16.5-7.7-24.7-11.5c-5.3-2.5-10.6-4.9-15.6-8c-19-11.6-17.8-42.5,2-54.1c8.9-5.2,15.7-7,27.2-7
		C556.7,535.6,556.8,535.1,557,534.6z"/>
	<path class="st2" d="M782.8,558.4c4.3-4.4,7.7-8.1,11.3-11.5c8.6-8.1,18.5-11,30.1-7.8c3.6,1,4.9,2.7,3.3,6.1
		c-2.3,4.7-4.8,9.2-7.4,14.1c-11-5.1-17.9,0.4-25.1,7.2c-7.4,7-10.2,14.6-9.7,25.1c1,22.7,0.3,45.6,0.4,68.3c0,4.5-1.8,6.1-6.1,6
		c-16.2-0.3-14,3.2-14-13.7c-0.1-26.2,0.1-52.5-0.7-78.7c-0.2-6.8-2.7-13.8-5.3-20.2c-2.1-5.1-1.9-8.4,3.3-10.6
		c0.6-0.2,1.1-0.5,1.7-0.8c8.7-4.8,11.3-3.8,14.8,6C780.6,551,781.4,554.1,782.8,558.4z"/>
	<path class="st1" d="M569.3,825c7.6,2.3,10.4-0.6,11.6-6.4c0.9-4.1,2.3-8.2,4-12c0.8-1.8,2.7-3.7,4.5-4.5c1.4-0.7,3.5,0.2,5.3,0.4
		c-0.8,1.5-1.6,3-2.5,4.5c-1.5,2.7-3.4,5.3-4.5,8.1c-1.7,4.5-2.8,9.1-4.1,13.4c1.8,4.8,3.8,9.6,5.4,14.6c1.3,4,1.4,8.5,6.5,10.2
		c0.6,0.2,1.2,2.2,0.9,2.9c-0.5,1-1.8,2.3-2.9,2.3c-4.7,0.3-7.6-2.2-8.9-6.6c-1.4-4.9-2.6-9.8-4.2-14.6c-1.1-3.3-2.8-6.6-7.2-5.8
		c-4.7,0.8-3.7,4.6-3.7,7.7c0,4.6,0.5,9.3,0.1,13.9c-0.1,1.7-2.1,3.2-3.3,4.8c-1-1.6-2.9-3.1-3-4.8c-0.4-5,0.1-10.1-0.3-15.1
		c-0.2-2.2-1.9-4.2-2.9-6.3c-2.5,1.4-6.1,2.3-7.2,4.4c-2.1,4.2-3,9.2-4.1,13.9c-2,9.2-9.8,10.3-17.7,7.8c-1.5-0.5-2.6-3.4-3.1-5.4
		c-2.9-11.7-3.8-12.2-15.7-10.8c-3.5,0.4-5.4,1.7-6,5.4c-0.8,5.2-1,10.9-8.1,12.7c-1.3,0.3-1.9,5.3-2,8.1c0,2.9,0.2,5.8-3.5,5.4
		c-1.2-0.2-2.9-3.4-3-5.3c-0.1-9.6,0-9.6-9.9-9.6c-5.3,0-10.5,0.4-15.8,0.2c-4.2-0.2-5.8,1.3-5.7,5.6c0,3.4,2.2,8.4-3.7,9
		c-0.6,0.1-2.4-5.9-2.5-9.1c-0.2-5.1,1.1-9.2,4.5-14.2c4.6-6.5,4.8-16.3,6-24.9c0.8-5.5,0.2-11.3,0.2-16.9c0-3.7,1.3-5.7,5.3-5.7
		c4.7,0.1,9.3-0.2,13.9-0.1c8.3,0.2,8.4,0.5,8.4,8.6c0,11.9,0.1,23.8,0.5,35.7c0.1,2,1.8,3.9,2.8,5.8c1.9-1.7,4.8-3,5.5-5.1
		c4.4-13.4,8.3-27,12.6-40.5c0.6-1.8,2.8-4.5,3.7-4.3c1.9,0.4,4.3,2.2,4.9,4c4.6,14,8.8,28.1,13.3,42.1c0.5,1.6,1.8,2.9,2.7,4.4
		c1.6-1,3.9-1.7,4.7-3.1c1.4-2.6,1.8-5.7,2.9-8.6c1.6-4.3,3.3-8.4,5.1-13c-1.4-3.9-2.8-8.7-4.8-13.2c-1.3-2.9-3.6-5.4-5.2-8.2
		c-0.7-1.2-0.9-2.7-1.4-4.1c1.4-0.3,3.6-1.4,4.1-0.9c2.9,3.4,5.7,6.9,7.8,10.8c1.5,2.8,1.2,6.7,3.1,9c1.6,2.1,5.1,2.9,7.7,4.2
		c0.8-2.1,2.2-4.1,2.4-6.2c0.4-4.4-0.1-8.9,0.4-13.3c0.1-1.4,2.1-2.6,3.2-3.9c0.8,1.4,2.4,2.7,2.4,4.1
		C569.5,812.6,569.3,818.8,569.3,825z M465.2,852.4c5.8,0,10.8,0.3,15.7-0.2c1.4-0.1,3.5-2.7,3.5-4.2c0.3-11.7-0.1-23.4,0.2-35.1
		c0.1-5.4-3.1-5.3-6.7-5c-3.6,0.3-8.5-2-8.5,5c-0.1,8.4-0.7,16.9-1.4,25.3C467.6,842.7,466.3,847.1,465.2,852.4z M523.1,835.2
		c-1.9-7.5-3.5-13.9-5.1-20.3c-0.8,0-1.6,0-2.3,0c-1.7,6.5-3.4,13-5.3,20.3C514.9,835.2,518.4,835.2,523.1,835.2z"/>
	<path class="st2" d="M469.9,601.6c0-18.4,0.1-36.8-0.1-55.1c-0.1-5,1.7-6.5,6.7-6.5c16.5-0.1,14-0.4,14.1,13.3
		c0.3,28.5,0.1,56.9,0.2,85.4c0,6.7,0.1,13.3,0.3,20c0.1,4.2-1.6,6.2-6.1,6.2c-14.5-0.2-15,1.4-14.6-12.9
		c0.6-16.7,0.1-33.5,0.1-50.2C470.4,601.6,470.2,601.6,469.9,601.6z"/>
	<path class="st2" d="M988.9,422.5c-15.7,14-30.9,27.6-46.1,41.2c-1.2-10.1-4.4-19.5,5.8-27.1c11.7-8.9,21.9-19.7,32.9-29.5
		c6.8-6,7.1-5.9,13.8,0.3c11.9,10.9,23.8,21.8,35.4,33c1.9,1.9,3.2,5.1,3.5,7.8c0.6,4.9,0.2,10,0.2,14.9c-0.5,0.3-1.1,0.6-1.6,0.9
		C1018.3,450.3,1004,436.8,988.9,422.5z"/>
	<path class="st2" d="M1034.3,502.5c-8.5-7.8-15.5-14.2-22.5-20.7c-6.2-5.8-12.5-11.5-18.6-17.4c-2.6-2.5-4.9-3.1-7.8-0.5
		c-6.8,6-13.7,11.9-20.5,17.9c-5.9,5.2-11.6,10.6-17.5,15.9c-1.4,1.3-3.2,2.2-6.1,4.1c0-7-0.1-12.6,0.1-18.1c0-1.1,0.7-2.5,1.4-3.2
		c14-12.9,28.1-25.6,42.1-38.5c3.7-3.4,6.2-2.2,9.5,1.1c11.9,11.8,24,23.5,36.4,34.7c3.8,3.5,3.4,7.4,3.6,11.5
		C1034.4,493.1,1034.3,496.9,1034.3,502.5z"/>
	<path class="st1" d="M311.8,722.4c-1.3,1.1-2.5,2.5-4,3.3c-1,0.5-2.4,0.1-3.6,0.2c-14.9,0.2-11.9-0.8-12.2,13
		c-0.1,3.8,1.3,5.6,5.3,5.4c2.6-0.2,5.3-0.2,7.9,0.1c1.1,0.1,2,1.5,3,2.2c-0.9,1.1-1.7,2.8-2.8,3.1c-2.3,0.5-4.8,0.6-7.2,0.4
		c-4.9-0.4-6.5,2-6.2,6.5c0.9,15.7-2.5,13.9,13.2,14.2c13,0.3,17-3.6,17.4-17.1c0.2-8.5,0.5-17,0.2-25.5c-0.2-5.6,0.9-8.7,7.5-8
		c5,0.5,10.1,0.2,15.1,0.1c3.5-0.1,5.2,1.1,5.1,4.9c-0.1,15.4,0.2,30.7,0,46.1c0,1.8-2.2,3.5-3.3,5.3c-0.9-1.7-2.7-3.5-2.7-5.2
		c-0.2-13.1-0.3-26.3,0-39.4c0.1-5-2.1-6.6-6.5-6.1c-3.9,0.4-9.2-1.8-9.4,5.8c-0.3,11.1-1.2,22.1-2.5,33.1
		c-1,9.1-6.1,12.5-15.4,12.1c-6.7-0.3-13.3-0.1-20-0.1c-3.2,0-4.9-1.2-4.9-4.6c-0.1-15.1-0.1-30.3-0.5-45.4
		c-0.1-4.8,1.6-6.5,6.3-6.3c6.4,0.2,12.8,0.1,19.2,0.1C311.2,721,311.5,721.7,311.8,722.4z"/>
	<path class="st1" d="M369,758.8c3.5-7.2,7-14.4,10.4-21.7c2.1-4.4,3.9-8.9,6.5-13c1.2-1.8,3.9-2.6,5.9-3.9c1,1.7,2.7,3.5,2.8,5.2
		c0.3,15.5,0.5,31.1,0.4,46.6c0,1.3-2.2,2.6-3.3,3.9c-1-1.4-2.8-2.7-2.9-4.1c-0.2-11.7-0.1-23.4-0.1-35c-0.5-0.2-1-0.5-1.5-0.7
		c-1.2,1.8-2.7,3.4-3.6,5.3c-5,10.4-9.7,20.9-14.8,31.2c-0.8,1.6-3.1,2.4-4.7,3.6c-1.1-1.7-3.2-3.4-3.2-5.1
		c-0.3-14.7-0.2-29.5-0.1-44.2c0-1-0.2-2.3,0.3-3c0.9-1.3,2.3-2.3,3.5-3.4c0.7,1.2,1.9,2.5,1.9,3.8c0.2,8.5,0.2,17,0.3,25.5
		c0,3,0.3,5.9,0.5,8.8C367.8,758.6,368.4,758.7,369,758.8z"/>
	<path class="st1" d="M531.8,758.9c3.2-6.6,6.4-13.2,9.5-19.8c2.2-4.6,4.3-9.1,6.4-13.7c1.5-3.2,3.4-6.8,7.5-5.2
		c1.6,0.7,2.8,4.5,2.8,6.9c0.3,14.8,0.3,29.5,0.1,44.3c0,1.6-2,3.1-3.1,4.7c-1.1-1.5-3.1-3.1-3.2-4.7c-0.3-9.9-0.1-19.8-0.1-29.7
		c0-2.5,0-5.1,0-7.6c-0.5-0.1-1-0.2-1.5-0.3c-5.2,10.8-10.5,21.6-15.7,32.5c-1.1,2.4-1.8,5.1-3.5,7c-1.2,1.5-3.6,2.5-5.5,2.6
		c-0.7,0-2.4-2.9-2.4-4.5c-0.2-15.4-0.3-30.7-0.1-46.1c0-1.7,1.7-3.4,2.7-5.1c1.2,1.8,3.3,3.5,3.4,5.3c0.5,9.7,0.4,19.4,0.6,29
		c0,1.3,0.4,2.7,0.6,4C530.9,758.6,531.4,758.8,531.8,758.9z"/>
	<path class="st1" d="M270.8,746.7c11.2,9.4,11.2,23.5-0.2,28c-6.1,2.4-13.5,1.4-20.3,1.6c-0.8,0-2.3-2.6-2.4-4.1
		c-0.2-15.5-0.1-31.1-0.2-46.7c0-3.2,1.1-5,4.5-5c2.2,0,4.5,0,6.7-0.2c6.5-0.3,13.6-0.2,16.4,6.3C278.2,733.5,278,741.1,270.8,746.7
		z M254.3,759.9c0.6,10.7,0.9,11.2,7.5,10.8c6.7-0.4,10.4-4,10.2-10.1c-0.3-6.6-4.9-10.3-12.2-10.2
		C251.7,750.7,255.3,756.8,254.3,759.9z M254.3,735.5c1.2,3.2-2.9,9.4,5,9.5c6.8,0.1,10.9-3.8,10.8-10.1c-0.1-6.4-3.2-9.1-10-9.1
		C252.8,725.8,254.5,730.9,254.3,735.5z"/>
	<path class="st1" d="M453.8,830.6c-1.9,6.9-3.4,14.1-5.9,21c-2.1,5.8-7.5,7.6-13.2,7.8c-6,0.2-11.2-1.9-13.9-7.8
		c-6.8-14.7-6.4-29.4,0.8-43.7c2.7-5.4,8.2-7,14-6.7c5.9,0.3,10.9,2.9,12.8,8.5C450.7,816.2,451.9,823.1,453.8,830.6z"/>
	<path class="st1" d="M478.2,748.4c0-7.5-0.2-15,0.2-22.4c0.1-2,2-4,3.1-6c1,1.9,2.6,3.7,2.9,5.6c0.5,4,0.3,8,0.2,12.1
		c-0.1,4.1,1.2,6.2,5.9,6.4c16.3,0.5,16.2,0.6,16.7-15.4c0.1-3-2.3-8.2,2.9-8.2c5.3,0,2.8,5.4,2.9,8.3c0.4,14.1,0.5,28.3,0.3,42.4
		c0,1.7-2.2,3.4-3.3,5.1c-0.9-1.7-2.5-3.4-2.6-5.1c-0.4-5.6,0-11.3-0.5-16.9c-0.2-1.6-2.7-2.9-4.1-4.4c-0.1-0.1-0.4,0-0.6,0
		c-22.1-0.5-16.8-1.4-17,16.3c0,2,0.4,4.2-0.2,6c-0.6,1.6-2.3,2.8-3.6,4.2c-1-1.4-2.8-2.8-2.9-4.3
		C478.1,764.2,478.2,756.3,478.2,748.4C478.2,748.4,478.2,748.4,478.2,748.4z"/>
	<path class="st1" d="M342.2,830c0-7.1,0.2-14.2-0.1-21.2c-0.2-4.6,1-6.7,6-6.5c7.3,0.3,14.5,0.2,21.8,0.1c3.2-0.1,4.7,0.7,4.7,4.4
		c0,15.2,0.4,30.3,0.3,45.5c0,2-2.2,3.9-3.3,5.9c-1-1.9-2.7-3.7-2.8-5.6c-0.3-12.9-0.5-25.9-0.2-38.8c0.1-4.7-1.6-5.9-6-5.9
		c-14-0.1-14-0.2-14.1,13.4c-0.1,10.5,0.1,21-0.3,31.5c-0.1,1.8-2,3.5-3.1,5.3c-1-1.7-2.7-3.3-2.7-5c-0.3-7.7-0.1-15.4-0.1-23
		C342.3,830,342.2,830,342.2,830z"/>
	<path class="st1" d="M395.8,802.4c6-0.3,12.6-0.7,16.1,6.2c3.3,6.4,3.8,13-0.4,19.5c-3.1,4.8-7.9,6.3-13,6.4
		c-6.3,0.1-8.1,2.9-7.5,8.7c0.4,3.8,0.3,7.7-0.2,11.5c-0.2,1.4-2.3,2.5-3.5,3.8c-0.8-1.3-2.4-2.7-2.4-4c-0.2-15.8,0-31.6-0.1-47.3
		c0-3.8,1.8-5,5.2-4.8C391.8,802.5,393.6,802.4,395.8,802.4z M390.9,818.5c-0.4,0.1-0.7,0.2-1.1,0.3c1.1,3.3,2.2,9.5,3.4,9.5
		c4.2,0,9.2-1.1,12.5-3.6c2-1.6,2.2-6.7,1.8-10c-0.5-5.3-5.2-7.2-12.2-6.8c-5.8,0.3-3.7,4.6-4.3,7.6
		C390.8,816.5,390.9,817.5,390.9,818.5z"/>
	<path class="st1" d="M451.4,743.8c4.7,0,8.7-0.2,12.6,0.1c1.4,0.1,2.6,1.6,4,2.5c-1.4,1.1-2.7,2.9-4.2,3.1
		c-12.8,1.4-12.7,1.3-12.4,14.3c0.1,4.8,1.3,7.1,6.6,6.4c3.6-0.5,7.3,0,10.9,0.3c1,0.1,2,1.5,2.9,2.3c-0.8,1-1.6,2.7-2.5,2.8
		c-7.2,0.4-14.5,0.7-21.8,0.4c-1,0-2.6-3-2.6-4.7c-0.1-15.4,0.2-30.7,0.1-46.1c0-4.4,1.7-5.6,5.7-5.4c5.7,0.3,11.3,0,17,0.3
		c1.2,0.1,2.3,1.5,3.4,2.3c-1.1,1-2.1,2.7-3.2,2.8c-3.6,0.4-7.3,0.3-10.9,0.3c-4,0-6,1.6-5.8,5.8C451.6,735.2,451.4,739,451.4,743.8
		z"/>
	<path class="st1" d="M594.9,722.2c-1.4,1-2.7,2.3-4.2,2.9c-1.2,0.5-2.8,0.2-4.2,0.3c-13.1,0.2-13,0.1-12.4,13.3
		c0.2,3.7,1.5,5.1,5.1,5c2.8-0.1,5.7-0.2,8.5,0.2c1.2,0.2,2.2,1.6,3.3,2.5c-1.1,0.9-2.1,2.5-3.3,2.7c-2.8,0.5-5.6,0.4-8.4,0.3
		c-3.6-0.1-5.2,1.6-5,5.2c0,0.2,0,0.4,0,0.6c-0.7,14.7-0.7,14.7,13.9,14.8c1.4,0,2.9-0.1,4.2,0.4c0.9,0.3,2.3,1.6,2.2,2.2
		c-0.2,1.1-1.3,3-2.1,3c-7.4,0.3-14.9,0.3-22.3,0.1c-0.7,0-2-2.5-2-3.8c-0.1-15.9-0.2-31.9,0-47.8c0-1.4,1.6-3.9,2.5-3.9
		c7.8-0.3,15.5-0.2,23.3-0.2C594.3,720.7,594.6,721.4,594.9,722.2z"/>
	<path class="st1" d="M435.7,748.5c0,7.7,0.2,15.3-0.2,23c-0.1,1.6-2.1,3.2-3.2,4.7c-1.1-1.6-3-3.1-3.1-4.8
		c-0.5-4.6-0.4-9.3-0.3-13.9c0.1-4-1.2-5.9-5.4-4.4c-0.8,0.3-1.6,0.4-2.4,0.5c-13.5,1.4-18.2-2.9-18.1-16.5c0-4.2-0.1-8.5,0.2-12.7
		c0.1-1.2,1.6-2.3,2.4-3.5c1.1,1.2,3,2.3,3.1,3.5c0.4,4.6-0.2,9.3,0.5,13.8c0.6,3.3,2.1,8.6,4.2,9.1c4.1,1.1,9-0.3,13.4-1.2
		c1-0.2,1.8-2.9,1.9-4.5c0.3-5.8,0-11.7,0.4-17.5c0.1-1.3,1.8-2.6,2.7-3.9c1.1,1.3,3.1,2.6,3.2,4c0.3,8.1,0.2,16.1,0.2,24.2
		C435.5,748.5,435.6,748.5,435.7,748.5z"/>
	<path class="st1" d="M214,720.2c4.5,11.2,9,22.4,13.6,33.7c0.6,0,1.1-0.1,1.7-0.1c2.4-8.6,4.7-17.3,7.2-25.9c0.9-3,0-7.5,5.1-7.2
		c0.3,0,1,5.5,0.4,8.2c-3.2,12.9-6.8,25.7-10.4,38.5c-2.3,8.2-9.8,12.2-17.4,9.3c-1.5-0.6-2.3-2.9-3.5-4.5c1.6-0.4,3.4-1.3,4.9-1
		c5.8,1.5,9.9-0.8,11-6.7c0.2-0.9,0.3-2.2-0.2-2.8c-8.7-10.1-10.2-23.3-15.2-35c-0.8-1.8,0.2-4.3,0.4-6.4
		C212.3,720.1,213.1,720.2,214,720.2z"/>
	<path class="st2" d="M481.3,514.1c-8.3-0.2-14.2-6.2-13.9-14.3c0.2-7.6,6.5-13.5,14.3-13.3c8.3,0.1,14.7,6.6,14.4,14.6
		C495.8,508.3,489,514.3,481.3,514.1z"/>
	<path class="st1" d="M690.6,608c-18.1-0.7-30.2-14.9-30.3-30.2c0-13,15.2-28.3,32-28.4c17.2-0.1,28.5,16,28.5,29.6
		C720.9,594.1,705.8,608.2,690.6,608z"/>
	<path class="st1" d="M1137.2,605.9c-0.6,5.4-0.9,13.1-2.3,20.6c-3.5,19-15.8,26.2-34.2,20.6c-16.4-5-16.3-5-16.2-22.1
		c0.1-16.1,0-32.2-0.2-48.4c-0.1-5.5,1.8-9.3,6.7-11.8c4.3-2.1,8.4-4.9,13-6.4c14.5-4.6,26.7,2.6,30.2,17.5
		c0.8,3.3,1.5,6.7,1.8,10.1C1136.6,591.9,1136.8,597.7,1137.2,605.9z"/>
	<path class="st1" d="M148.6,603.2c0,11.7,0.1,23.5-0.1,35.2c0,2.1-1.4,4.8-3.1,6c-9.2,7-19.9,9.8-31.3,9
		c-8.8-0.7-14.1-6.5-16.9-14.5c-5.1-14.5-4.2-29.5-4-44.4c0.1-6.4,1-12.9,2.4-19.2c3.3-14.6,14.1-22.1,29-20.8c1,0.1,2,0.2,3,0.5
		c18.8,3.8,20.5,5.8,20.7,24.6c0.1,7.9,0,15.8,0,23.7C148.3,603.2,148.4,603.2,148.6,603.2z"/>
	<path class="st1" d="M257.1,590.7c-16.8,0-31.5-0.1-46.2,0.1c-5,0.1-6.4-1.8-5.6-6.5c1.3-8.3,3.4-16,9.3-22.5
		c12.2-13.5,33.2-11.7,41.6,4.3c2.7,5.1,4.5,10.8,5.5,16.5C262.9,589.1,262.5,591.8,257.1,590.7z"/>
	<path class="st1" d="M906.1,606.4c-1.8,8.5-2.8,18.8-6.3,28.3c-5,13.7-14.8,19.3-28,18.5c-12.1-0.8-21.5-8.5-25.3-21.7
		c-5.4-18.7-5.7-37.4,0.2-56c4.5-14.2,14.8-22.2,27.8-21.9c13.1,0.4,24.7,10.4,27.6,24.7C903.9,586.9,904.6,595.7,906.1,606.4z"/>
	<path class="st1" d="M465.2,852.4c1.1-5.3,2.4-9.7,2.8-14.2c0.8-8.4,1.3-16.9,1.4-25.3c0.1-7,5-4.7,8.5-5c3.6-0.3,6.8-0.4,6.7,5
		c-0.3,11.7,0.1,23.4-0.2,35.1c0,1.5-2.2,4.1-3.5,4.2C476,852.7,471,852.4,465.2,852.4z"/>
	<path class="st1" d="M523.1,835.2c-4.6,0-8.1,0-12.7,0c1.9-7.3,3.6-13.8,5.3-20.3c0.8,0,1.6,0,2.3,0
		C519.6,821.3,521.2,827.8,523.1,835.2z"/>
	<path class="st1" d="M254.3,759.9c1-3.1-2.6-9.2,5.4-9.4c7.3-0.2,11.9,3.5,12.2,10.2c0.3,6-3.4,9.7-10.2,10.1
		C255.2,771.1,254.9,770.6,254.3,759.9z"/>
	<path class="st1" d="M254.3,735.5c0.2-4.5-1.5-9.7,5.8-9.7c6.7,0,9.9,2.7,10,9.1c0.1,6.2-4,10.2-10.8,10.1
		C251.4,744.9,255.5,738.6,254.3,735.5z"/>
	<path class="st1" d="M422.9,830.5c0.8-6.5,0.6-11.8,2.3-16.4c1.2-3.1,5-7.2,7.7-7.2c3.4,0,8.8,3,9.9,5.9c4.2,12,4.7,24.4-0.5,36.5
		c-1.7,4-5.3,5.8-8.8,4.5c-3.2-1.2-7-4-7.9-6.9C423.6,841.2,423.5,835,422.9,830.5z"/>
	<path class="st1" d="M390.9,818.5c0-1-0.2-2,0-3c0.6-2.9-1.5-7.2,4.3-7.6c7.1-0.4,11.7,1.5,12.2,6.8c0.3,3.4,0.2,8.4-1.8,10
		c-3.2,2.5-8.2,3.6-12.5,3.6c-1.1,0-2.2-6.2-3.4-9.5C390.2,818.7,390.6,818.6,390.9,818.5z"/>
</g>
</svg>
