<?xml version="1.0" encoding="utf-8"?>
<!-- Generator: Adobe Illustrator 25.4.1, SVG Export Plug-In . SVG Version: 6.00 Build 0)  -->
<svg version="1.1" id="Слой_1" xmlns="http://www.w3.org/2000/svg" xmlns:xlink="http://www.w3.org/1999/xlink" x="0px" y="0px"
	 viewBox="0 0 1234.6 1234.6" style="enable-background:new 0 0 1234.6 1234.6;" xml:space="preserve">
<style type="text/css">
	.st0{fill:#D8D8D8;}
	.st1{display:none;fill:#FFFFFF;}
	.st2{fill:#FFFFFF;}
	.st3{fill:none;stroke:#FFFFFF;stroke-width:25;stroke-miterlimit:10;}
</style>
<g>
	<path class="st0" d="M495.7,616.6c-7.1-14.4-6-21.6,5.3-32.9c24.8-24.6,49.5-49.3,74.3-73.9c1-1,2.2-2,3.4-2.9
		c34.2,35.6,69.8,69.9,104.5,105c3.9,4,8,7.8,12.1,11.8c-2,1.4-3.6,0.9-5,0.9c-57.5,0-115.1,0-172.7,0
		C509.4,624.7,501.6,623.1,495.7,616.6z"/>
	<path class="st1" d="M125.1,719.4c0-183.1,0-366.3-0.1-549.4c0-3.6,0.5-4.7,4.5-4.7c328.8,0.1,657.7,0.1,986.5,0
		c4.1,0,4.8,0.8,4.8,4.9c-0.1,225.1-0.1,450.1,0,675.2c0,3.8-0.5,5-4.8,5c-328.7-0.1-657.3-0.1-986,0c-4.2,0-5.9-0.9-5-5.1
		c0.5-0.4,1-0.7,1.5-1c5.1-1,10.3-0.4,15.4-0.5c6.2-0.2,6.6-0.4,6.6-6.4c0-9.5,0-19,0-28.4c0-7.8,1.3-9,9-9c10.5-0.1,21,0,31.5,0
		c31.5-0.2,50-30.2,35.8-58.3c-7.7-15.2-21.8-20-37.4-20.5c-18-0.6-35.9-0.1-53.9-0.2c-2.3,0-4.7,0.2-6.9-0.5
		C126,720.1,125.5,719.8,125.1,719.4z"/>
	<path class="st1" d="M126,845.2h-0.5l-0.5-0.1c0-41.9,0-83.8,0-125.8c0.4,0,0.8,0.1,1.2,0.1c1.7,2,1.5,4.3,1.5,6.6
		c0,37.3,0,74.7,0,112C127.7,840.6,127.8,843.1,126,845.2z"/>
	<path class="st2" d="M498,616.6c-0.2,0.3-0.5,0.6-0.9,0.7c-0.6,0.1-1.1-0.4-1.4-0.6c-7.4-7.1-9.6-15-9.6-15c-2.2-7.5-2.2-13-2.2-13
		c0-92.3,0-184.6,0-277c0-21.5,8.6-39.1,23.8-54.1c29.6-29.2,58.9-58.7,88.3-88.2c2.6-2.7,3.9-2.6,6.6,0
		c51.7,51.8,103.5,103.5,155.4,155.2c2.1,2,3,3.3,0.3,5.9c-25.8,25.5-51.4,51.1-77.2,76.7c-62.5,62-93.5,93.3-97.4,96.6
		c0,0-78.3,66.2-84.7,98.4c-1.1,5.7-1,11.4-1,11.4C497.9,615.1,497.9,616.1,498,616.6z"/>
	<path class="st2" d="M1095.9,792.1c-4.1,9.5-8.1,19-12.2,28.5c-3.1,7.3-6.2,14.7-9.3,22c-0.3,0.8-0.6,2.1-1,2.2
		c-5.6,1.2-11.2,0.5-16.8,0.5c-2.9,0-2.8-3-3.5-4.8c-6.9-16-13.6-32-20.8-49.2c-0.2,2.2-0.4,3.4-0.4,4.5c0,15.1-0.1,30.3,0.1,45.4
		c0.1,3.6-1,4.6-4.4,4.3c-5.7-0.5-13.4,2.4-16.7-1.2c-2.8-3.1-0.9-10.7-0.9-16.3c0-22,0.2-43.9-0.2-65.8c-0.1-5.4,1.6-6.4,6.4-6.1
		c6.1,0.4,12.3,0.4,18.4,0c4-0.2,5.8,1.1,7.2,4.9c6.8,18,14,35.8,21,53.7c0.4,0.9,0.9,1.8,1.6,3.3c5.7-14.5,11.2-28.5,16.7-42.5
		c2.1-5.2,4.2-10.5,6.2-15.7c0.9-2.5,2.2-3.7,5.1-3.6c7.5,0.2,15,0.2,22.4,0c3.1-0.1,4,1,4,4c-0.1,27.3-0.1,54.5,0,81.8
		c0,2.9-0.9,3.7-3.7,3.6c-4.8-0.2-9.7-0.2-14.5,0c-3.2,0.2-3.9-1-3.8-4c0.2-14.8,0.1-29.6,0.1-44.4c0-1.6,0-3.2,0-4.8
		C1096.6,792.2,1096.3,792.1,1095.9,792.1z"/>
	<path class="st2" d="M704.7,801.3c0,13.3-0.1,26.6,0.1,39.9c0,3.1-0.6,4.4-4,4.2c-5.1-0.3-10.3-0.3-15.5,0c-3.2,0.2-3.9-0.9-3.8-4
		c0.1-19.8-0.1-39.6,0.2-59.4c0.1-4.8-1.4-5.9-5.8-5.6c-5.3,0.4-10.7,0.2-16,0c-2.6-0.1-3.3,0.7-3.6,3.3
		c-1.3,12.9-1.1,25.9-3.2,38.7c-0.5,3-1,5.9-1.8,8.8c-4,14.6-15.2,21.6-30.3,19.3c-2.2-0.3-3.3-1.1-3.3-3.4c0-5.7-0.1-11.3-0.3-17
		c-0.1-2.6,0.5-3.4,3.3-3.2c8.1,0.6,9.8-0.7,11.1-9c2.3-14.5,2.7-29.1,3.6-43.7c0.9-14.4,0.6-14.4,14.9-14.4
		c16.6,0,33.3,0.1,49.9-0.1c3.5,0,4.5,0.9,4.5,4.4C704.5,774,704.7,787.6,704.7,801.3z"/>
	<path class="st2" d="M904.8,845.6c-9.4,0-17.6,0-25.7,0c-2.1,0-3.3-1.2-4.5-2.6c-8.3-9.5-16.7-19-25.1-28.4
		c-1.2-1.3-2.4-2.6-4.7-5.1c0,5,0,8.7,0,12.4c0,6.7-0.1,13.3,0.1,20c0.1,2.8-0.8,3.8-3.7,3.8c-5.3-0.2-10.7-0.2-16,0
		c-2.4,0.1-3.5-0.4-3.5-3.2c0.1-27.6,0.1-55.2,0-82.8c0-3,1.1-3.6,3.8-3.5c5.2,0.2,10.3,0.2,15.5,0c3.2-0.1,3.9,1.2,3.9,4.1
		c-0.1,8.8-0.1,17.5-0.1,26.5c2.7-0.3,3.6-2.3,4.9-3.7c8-8,16-16,23.9-24.1c1.9-1.9,3.8-2.9,6.5-2.8c7.4,0.2,14.8,0.1,23.5,0.1
		c-2.4,2.7-4,4.5-5.7,6.2c-10.4,10.5-20.9,21-31.5,31.4c-2.9,2.9-3.5,4.7-0.3,8.2C879,815.9,891.4,830.4,904.8,845.6z"/>
	<path class="st2" d="M389.2,848.1c-22.6,0-41-15.3-44.7-39.2c-3.6-23.9,9-46,31-52.7c16.7-5.1,32.8-3.5,47,7.9
		c0.3,0.2,0.5,0.4,0.8,0.6c9.6,8.8,9.4,10.8-1.7,17c-0.4,0.2-0.9,0.5-1.3,0.7c-2.6,1.5-5.1,3.9-7.8,4.2c-3,0.3-4-3.8-6.2-5.7
		c-6.8-5.8-14.4-7.4-22.8-4.7c-8.7,2.8-13.6,9.3-15.5,18c-3.5,15.6,4.7,29.5,19.1,32c9.2,1.6,17.2-1.2,22.9-8.8
		c2.6-3.4,4.7-3.8,8.1-1.5s7.1,4.4,10.9,6c3.5,1.5,2.9,3.2,1.2,5.6C421,841.3,408.2,848.4,389.2,848.1z"/>
	<path class="st2" d="M477.4,756c11.1,0,22.3,0.1,33.4-0.1c3.5-0.1,5.3,0.5,4.9,4.6c-0.6,5,2.1,11.6-1.2,14.8
		c-3,2.9-9.5,0.8-14.5,0.8c-11.4,0.1-11.4,0-11.4,11.3c0,17.9-0.1,35.9,0.1,53.8c0,3.4-0.7,4.7-4.3,4.4c-4.8-0.3-9.7-0.3-14.5,0
		c-3.3,0.2-4.2-0.9-4.2-4.2c0.1-19.9-0.1-39.9,0.2-59.8c0-4.2-0.7-6-5.3-5.6c-5.6,0.5-11.3-0.2-16.9,0.2c-4,0.3-4.8-1.3-4.6-4.8
		c0.3-3.6,0.3-7.3,0-11c-0.3-3.5,0.8-4.6,4.4-4.5C454.8,756.2,466.1,756,477.4,756z"/>
	<path class="st2" d="M126,845.2c0-39.7,0-79.5,0-119.2c0-2.2,0.1-4.3,0.1-6.5c20.1,0,40.2-0.2,60.4,0c12.1,0.1,23.5,3.1,32.5,11.8
		c12,11.6,13.9,26.1,10.1,41.4c-3.8,15.2-14.7,23.5-29.4,27.3c-4.5,1.2-9.1,1.6-13.8,1.7c-9.6,0-19.3,0-28.9,0c-8.1,0-7-0.9-7,7.3
		c0,10.8-0.1,21.6,0,32.4c0,3.1-0.6,4.5-4.1,4.3C139.3,845.3,132.6,845.3,126,845.2z M169.5,780.1c5.7,0,11.3,0.2,17,0
		c11.6-0.5,18.6-6.7,19.8-17.1c1.3-10.9-4.3-19-15.1-21c-12.9-2.4-25.9-0.7-38.8-1.1c-2.5-0.1-2.4,1.7-2.4,3.4c0,11,0.1,22,0,32.9
		c0,2.4,0.8,3.2,3.2,3.2c5.5-0.1,11,0,16.5,0C169.5,780.2,169.5,780.2,169.5,780.1z"/>
	<path class="st2" d="M900.7,801c0-27.8,20-47.4,48.6-47.4c29-0.1,49.4,19.4,49.4,47.3c0,28-20.1,47.3-49.2,47.3
		C920.6,848.1,900.7,828.8,900.7,801z M949.2,775.2c-14.6,0.1-25.2,11.1-25.1,25.8c0.1,14.9,11.2,25.8,25.9,25.6
		c14.5-0.2,25.2-11.2,25.1-25.9C975.1,785.8,964.2,775.1,949.2,775.2z"/>
	<path class="st2" d="M235.5,801.1c-1.3-27.1,19.6-47.4,48.8-47.5c28.6-0.1,48.9,19.6,48.9,47.2c0,28.2-19.8,47.4-49,47.4
		C255.2,848.1,235.5,829.1,235.5,801.1z M284.3,775.2c-14.8,0-25.8,11-25.8,25.9c0,14.4,11.2,25.6,25.6,25.6
		c14.6,0.1,25.5-10.9,25.6-25.5C309.8,786.1,299.2,775.2,284.3,775.2z"/>
	<path class="st2" d="M578,806.6c-10,0-20,0.2-29.9-0.1c-4.4-0.2-4.7,1.6-3.6,4.9c2.7,8.6,8.3,14.5,17.2,16.4c9.4,2,18.5,0.7,25-7.2
		c3-3.7,5.5-4.3,9.3-1.8c2.9,1.9,6.1,3.4,9.3,4.7c3.8,1.4,3.1,3,1.3,5.8c-11.9,18.2-33.6,22.3-52.6,17.1
		c-19.1-5.2-31.8-22.7-32.5-43c-1.4-40.8,37.8-58.7,66.9-45.4c15.2,6.9,22.4,19.8,23.8,35.9c1.1,12.7,0.8,12.8-11.7,12.8
		C592.9,806.6,585.5,806.6,578,806.6z M586.9,789c3.1,0.1,4.2-0.5,2.9-3.9c-3.4-8.9-11.6-14.1-22.5-13.9c-9.9,0.2-20,7.2-22.5,15.4
		c-0.8,2.7,0.8,2.3,2.2,2.3c6.8,0,13.6,0,20.4,0C573.9,788.9,580.4,788.8,586.9,789z"/>
	<path class="st2" d="M773.3,806.6c-10,0-20,0.1-30-0.1c-3.3-0.1-4.3,0.5-3.4,4.1c5.3,20.8,31,21.9,41.2,11.2
		c5.3-5.6,5.5-5.5,12.5-2c2.4,1.2,4.7,2.6,7.2,3.5c3.7,1.3,3.3,2.9,1.4,5.8c-11.7,17.2-28.8,21.2-47.4,18.3
		c-19.1-3-33.2-17.5-36.7-35.5c-4.9-25.4,7-47.9,29.2-55.6c33.6-11.6,63.7,11.7,60.7,47.2c-0.2,3-1.8,3-3.9,3
		C794,806.5,783.6,806.6,773.3,806.6z M780.6,788.9c6.5,0,7-0.8,3.8-6.5c-4.7-8.2-12.1-11.4-21.2-11.2c-10,0.2-17,5.3-21.9,13.9
		c-1.9,3.4-0.6,3.9,2.5,3.8c6.5-0.1,12.9,0,19.4,0C769,788.9,774.8,789,780.6,788.9z"/>
</g>
<circle class="st3" cx="617.3" cy="617.3" r="604.8"/>
</svg>
