<?xml version="1.0" encoding="utf-8"?>
<!-- Generator: Adobe Illustrator 25.4.1, SVG Export Plug-In . SVG Version: 6.00 Build 0)  -->
<svg version="1.1" id="Слой_1" xmlns="http://www.w3.org/2000/svg" xmlns:xlink="http://www.w3.org/1999/xlink" x="0px" y="0px"
	 viewBox="0 0 247 247" style="enable-background:new 0 0 247 247;" xml:space="preserve">
<style type="text/css">
	.st0{fill:none;stroke:#FFFFFF;stroke-width:5;stroke-miterlimit:10;}
	.st1{fill:#FFFFFF;}
</style>
<circle class="st0" cx="123.5" cy="123.5" r="121"/>
<g>
	<path class="st1" d="M135,143.6c1.4-4.3,2.8-8.5,4.3-12.6c0.3-0.8,0.3-0.8,1.2-0.8c0.3,0,0.7,0,1,0c0.9,0,0.9,0,0.9,0.8
		c0,4.8,0,9.6,0,14.4c0,0.3,0,0.5,0,0.8c0,0.4-0.2,0.5-0.5,0.6c-1.6,0.1-1.6,0.1-1.6-1.5c0-3.2,0-6.4,0-9.6c0-0.2,0-0.4,0-0.5h-0.1
		c-0.2,0.6-0.4,1.2-0.6,1.9c-1,3-2,6.1-3,9.1c-0.1,0.5-0.4,0.7-0.8,0.6c-0.4,0-0.8,0-1.2,0c-0.5,0.1-0.8-0.2-1-0.7
		c-0.8-2.6-1.7-5.3-2.6-7.9c-0.3-1-0.7-2.1-1.1-3.1c0,1.2,0,2.5,0,3.7c0,2.4,0,4.8,0,7.2c0,0.7-0.1,0.7-0.8,0.7
		c-1.4,0-1.4,0.1-1.4-1.4c0-4.8,0-9.6,0-14.4c0-0.8,0-0.9,0.9-0.9c0.4,0,0.9,0,1.3,0c0.5,0,0.7,0.2,0.9,0.6c1,2.9,2,5.9,2.9,8.8
		C134,140.8,134.5,142.2,135,143.6z"/>
	<path class="st1" d="M150.6,138.4c0-2.5,0-5,0-7.5c0-0.7,0.1-0.8,0.8-0.8c2.9,0,5.7,0,8.6,0c0.7,0,0.7,0.1,0.7,0.8
		c0,1.3,0,1.3-1.3,1.3c-2.1,0-4.1,0-6.2,0c-0.3,0-0.5,0.1-0.5,0.5c0,1.4,0,2.8,0,4.2c0,0.4,0.1,0.5,0.5,0.5c2.2,0,4.4,0,6.6,0
		c0.7,0,0.8,0.1,0.8,0.8c0,1.3,0,1.3-1.3,1.3c-2.1,0-4.2,0-6.2,0c-0.4,0-0.5,0.1-0.5,0.5c0,1.4,0,2.9,0,4.3c0,0.4,0.1,0.5,0.5,0.5
		c2.2,0,4.4,0,6.6,0c0.8,0,0.9,0.1,0.9,0.8c0,1.2,0,1.2-1.2,1.2c-2.7,0-5.4,0-8.1,0c-0.7,0-0.8-0.1-0.8-0.8
		C150.6,143.4,150.6,140.9,150.6,138.4z"/>
	<path class="st1" d="M169.1,138.4c0-2.5,0-5,0-7.5c0-0.8,0-0.8,0.8-0.8c2.2,0,4.4,0,6.6,0c0.7,0,1.5,0.1,2.1,0.4
		c1.3,0.7,1.7,1.8,1.7,3.2c0,3.2,0,6.5,0,9.7c0,1.9-1.3,3.1-3.1,3.2c-2.5,0.1-5,0-7.5,0c-0.5,0-0.5-0.3-0.5-0.7
		C169.1,143.5,169.1,141,169.1,138.4z M171.2,144.2c0,0.3,0,0.5,0.4,0.5c1.7,0,3.4,0,5.1,0c0.9,0,1.4-0.5,1.5-1.4c0-0.2,0-0.4,0-0.7
		c0-2.1,0-4.3,0-6.4c0-0.7,0-1.5,0-2.2c0-1.3-0.6-1.8-1.9-1.8c-1.6,0-3.1,0-4.7,0c-0.4,0-0.5,0.1-0.5,0.5c0,1.9,0,3.8,0,5.7
		C171.2,140.3,171.2,142.3,171.2,144.2z"/>
	<path class="st1" d="M200.6,142.3c-0.7,0-1.5,0-2.2,0c-0.4,0-0.7,0.1-0.8,0.6c-0.3,1.1-0.7,2.2-1,3.3c-0.1,0.5-0.4,0.6-0.8,0.6
		c-1.5,0-1.5,0-1.1-1.5c1.5-4.8,3-9.7,4.4-14.5c0.1-0.5,0.4-0.7,0.9-0.7c0.4,0,0.9,0,1.3,0c0.4,0,0.6,0.2,0.8,0.6
		c1.4,4.8,2.9,9.5,4.4,14.3c0.1,0.3,0.2,0.6,0.3,1c0.2,0.6,0,0.8-0.6,0.8c-1.6,0-1.3,0.2-1.8-1.3c-0.3-0.9-0.6-1.9-0.9-2.8
		c-0.1-0.3-0.2-0.4-0.5-0.4C202.2,142.3,201.4,142.3,200.6,142.3z M198.5,140.2c1.4,0,2.7,0,4,0c0.4,0,0.2-0.2,0.2-0.4
		c-0.7-2.1-1.3-4.2-2-6.4C199.9,135.7,199.2,137.9,198.5,140.2z"/>
	<path class="st1" d="M64.2,139.3c-0.8,0-1.2-0.8-0.8-1.5c1-1.8,2.1-3.6,3.2-5.4c3.1-5.3,6.2-10.6,9.2-15.9c0-0.1,0.1-0.2,0.1-0.2
		c0.3-0.5,0.9-0.7,1.3-0.4c0.5,0.3,0.6,0.8,0.3,1.4c-0.8,1.5-1.7,2.9-2.6,4.4c-3.3,5.6-6.6,11.3-9.8,16.9
		C65,138.9,64.8,139.3,64.2,139.3z"/>
	<path class="st1" d="M56.5,104.8c-4.2,0-8.3,0-12.5,0c-0.8,0-1.2-0.3-1.2-1c0-0.6,0.4-0.9,1.2-0.9c8.4,0,16.7,0.1,25.1,0.1
		c0.9,0,1.4,0.5,1.1,1.3c-0.2,0.5-0.6,0.6-1,0.6c-2.6,0-5.2,0-7.8,0C59.8,104.9,58.1,104.9,56.5,104.8
		C56.5,104.9,56.5,104.8,56.5,104.8z"/>
	<path class="st1" d="M36.3,115.9c0.3,0,0.6,0.3,0.8,0.6c1.4,2.4,2.9,4.9,4.3,7.3c2.7,4.6,5.5,9.2,8.2,13.9c0.3,0.5,0.3,0.9-0.1,1.3
		c-0.3,0.4-0.8,0.4-1.2,0.1c-0.2-0.1-0.3-0.3-0.4-0.5c-1.4-2.3-2.8-4.7-4.1-7c-2.7-4.6-5.5-9.2-8.2-13.8c-0.1-0.2-0.2-0.3-0.3-0.5
		C35,116.6,35.4,115.9,36.3,115.9z"/>
	<path class="st1" d="M119.6,95.1c0-0.4-0.1-0.5-0.5-0.5c-8.6,0-17.1,0-25.7,0c-1,0-1.8,0.5-2.2,1.4c-0.4,0.9-0.2,1.9,0.6,2.6
		c1,1,2,1.9,2.9,2.9c4.8,4.7,9.5,9.4,14.3,14c0.6,0.6,1.1,1.2,1.7,1.8c-0.1,0.1-0.2,0-0.2,0c-5.1,0-10.3,0-15.4,0
		c-0.3,0-0.5-0.1-0.6-0.4c-1-1.3-2.3-2-4-1.9c-0.4,0-0.5-0.1-0.7-0.4c-1.6-2.7-3.2-5.5-4.9-8.2c-3.2-5.4-6.3-10.7-9.5-16.1
		c-0.6-1-1.4-1.5-2.6-1.5c-11,0-21.9-0.1-32.9-0.1c-1.1,0-1.9,0.4-2.4,1.4c-1.4,2.4-2.8,4.9-4.2,7.3c-4,6.9-8.1,13.8-12.1,20.8
		c-0.5,0.8-0.5,1.7,0,2.5c2.9,4.9,5.8,9.8,8.7,14.7c2.7,4.5,5.4,9.1,8.1,13.6c0.5,0.9,1.3,1.3,2.3,1.3c11,0,22.1,0.1,33.1,0.1
		c1,0,1.7-0.4,2.2-1.3c1.8-3.1,3.7-6.3,5.5-9.4c2.9-5,5.9-10.1,8.8-15.1c0.1-0.3,0.3-0.4,0.6-0.4c1.6,0,2.9-0.7,3.9-1.9
		c0.3-0.3,0.5-0.5,0.9-0.5c7.1,0,14.2,0,21.2,0c1.4,0,2.4-0.9,2.4-2.2c0.1-0.9-0.4-1.5-1-2.1c-3.3-3.2-6.6-6.5-9.9-9.7
		c-2.1-2.1-4.2-4.1-6.3-6.2c-0.8-0.8-1.7-1.7-2.6-2.6c0.3,0,0.5,0,0.7,0c6.4,0,12.7,0,19.1,0c0.4,0,0.6-0.1,0.6-0.6
		C119.6,97.5,119.6,96.3,119.6,95.1z M86.1,121.8c-4.6,7.9-9.2,15.7-13.7,23.6c-0.2,0.4-0.4,0.4-0.8,0.4c-4.9,0-9.9,0-14.8,0v-0.1
		c-4.9,0-9.8,0-14.8,0c-0.4,0-0.6-0.1-0.8-0.5c-3.9-6.6-7.8-13.1-11.6-19.7c-1.1-1.9-2.2-3.7-3.3-5.6c-0.2-0.3-0.2-0.5,0-0.8
		c4.9-8.5,9.9-16.9,14.8-25.4c0.2-0.3,0.3-0.3,0.6-0.3c7.4,0,14.7,0.1,22.1,0.1c2.5,0,5.1,0,7.6,0c0.4,0,0.6,0.1,0.8,0.4
		c3.3,5.5,6.5,11.1,9.8,16.6c1.4,2.4,2.9,4.9,4.3,7.3c0.1,0.2,0.1,0.3,0,0.5c-0.2,0.9-0.4,1.8,0,2.7
		C86.4,121.5,86.2,121.6,86.1,121.8z M89.7,122.2c-3.5-1.4-1.3-6.2,2.1-5C94.9,118.7,93.1,123.3,89.7,122.2z"/>
	<path class="st1" d="M221.2,94.3c-1.3,0-2.5,0-3.8,0c-0.4,0-0.5,0.1-0.5,0.6c0,6.2,0,12.5,0,18.8c0,0.2,0,0.4,0,0.7
		c-0.1-0.1-0.2-0.2-0.2-0.2c-3.4-3.4-6.9-6.8-10.3-10.1c-2.8-2.8-5.7-5.6-8.5-8.4c-0.8-0.8-1.8-1-2.7-0.6c-1,0.4-1.4,1.2-1.4,2.3
		c0,5.4,0,10.8,0,16.3c0,0.2,0,0.4,0,0.7c-2.8-2.7-5.5-5.4-8.2-8.1c-3.3-3.2-6.6-6.5-9.9-9.7c-0.2-0.2-0.3-0.4-0.3-0.7
		c0.2-1.3,0.2-2.7-0.1-4c-1.3-5.8-6.2-9.8-12.2-9.8c-5.7,0-10.5,3.7-12.1,9.2c-0.4,1.5-0.3,3.1-0.3,4.7c0.1,6,0,12,0,18
		c0,0.1,0.1,0.3-0.1,0.4c-0.1-0.1-0.1-0.1-0.2-0.2c-4.1-4-8.2-8.1-12.3-12.1c-2.2-2.2-4.4-4.3-6.6-6.4c-0.7-0.7-1.6-0.8-2.6-0.4
		c-0.9,0.4-1.4,1.1-1.4,2.1c0,8.2,0,16.4,0,24.7c0,0.3,0.1,0.4,0.4,0.4c1.2,0,2.4,0,3.7,0c0.5,0,0.7-0.1,0.7-0.7c0-6,0-12.1,0-18.1
		c0-0.2-0.1-0.4,0.2-0.8c1.2,1.3,2.3,2.6,3.5,3.8c5.1,5,10.1,10,15.2,15c0.8,0.8,1.8,1.1,2.8,0.6c1-0.5,1.5-1.3,1.4-2.4
		c0-5.1,0-10.2,0-15.3c0-0.2-0.1-0.4,0.1-0.6c4.2,2.8,8.6,3.3,13.2,1.1c0.3-0.1,0.4,0,0.6,0.1c1.6,1.6,3.2,3.2,4.9,4.8
		c2.6,2.5,5.2,5.1,7.8,7.6c1.4,1.4,2.8,2.9,4.1,4.3c0.1,0,0,0,0,0c-1.8,1-2.6,2.6-2.4,4.6c0.3,2,1.5,3.3,3.5,3.9
		c0.4,0.1,0.3,0.3,0.3,0.5c0,4.8,0,9.6,0,14.4c0,1.5,0,1.5,1.5,1.4c0.5,0,0.7-0.2,0.7-0.7c0-5.1,0-10.1,0-15.2c0-0.3,0-0.5,0.4-0.7
		c2-0.7,3.2-2.7,3-4.7c-0.3-2.2-1.9-3.8-4.1-4.1c-0.2,0-0.4-0.1-0.5-0.2c-2-2-4.1-4-6.1-6c-2.6-2.6-5.3-5.1-7.9-7.7
		c-1.2-1.2-2.3-2.4-3.5-3.6c0.8-0.7,1.7-1.5,2.4-2.5c0.2-0.3,0.3-0.3,0.6-0.1c4.3,4.3,8.7,8.5,13,12.8c2.6,2.5,5.1,5,7.7,7.6
		c0.8,0.8,1.7,0.9,2.6,0.5c1-0.4,1.4-1.2,1.4-2.3c0-5.4,0-10.9,0-16.3c0-0.2-0.1-0.4,0.2-0.8c0.9,1,1.8,2,2.7,2.9
		c4.7,4.6,9.3,9.2,14,13.8c0.8,0.8,1.5,1.5,2.3,2.2s1.7,0.8,2.6,0.5c0.9-0.4,1.4-1.1,1.4-2.1c0-8.4,0-16.9,0-25.3
		C221.7,94.4,221.6,94.3,221.2,94.3z M188.1,123.3c1.8,0,2.7,1,2.7,2.5s-1.2,2.7-2.7,2.7s-2.7-1.1-2.7-2.5
		C185.4,124.5,186.7,123.3,188.1,123.3z M162.9,101.7c-4.2,0-7.7-3.5-7.7-7.6s3.6-7.5,7.7-7.5c4.3,0,7.7,3.4,7.7,7.6
		C170.7,98.4,167.2,101.7,162.9,101.7z"/>
</g>
</svg>
