<?xml version="1.0" encoding="UTF-8"?>
<svg width="82mm" height="27mm" version="1.1" viewBox="0 0 82 27" xmlns="http://www.w3.org/2000/svg" xmlns:xlink="http://www.w3.org/1999/xlink"><g opacity=".370848"><text x="14.42956" y="-14.037026" fill="#000000" font-family="sans-serif" font-size="10.5833px" letter-spacing="0px" stroke-width=".264583" word-spacing="0px" style="line-height:1.25" xml:space="preserve"><tspan x="14.42956" y="-14.037026" stroke-width=".264583"/></text></g><g transform="translate(0,-277)"><g transform="translate(.562874 6.02948)"><path id="rect4594" d="m6.96583 278.992h1.2v1.2h-1.2zm-1.39978-1.39996v3.99976h3.99976v-3.99976zm0.799951 0.79995h2.39985v2.39985h-2.39985z" fill="#fff" stroke-width=".264583"/><path id="rect4594-3" d="m10.3658 277.592v3.99975h3.99976v-3.99975zm1.39991 0.79995h1.19993v2.39985h-0.599963v-1.79989h-0.599964z" fill="#fff" stroke-width=".264583"/><g fill="#ffffff"><use transform="translate(-9.59951)" width="100%" height="100%" xlink:href="#rect4594-3"/><use transform="translate(-4.79976 4.79976)" width="100%" height="100%" xlink:href="#rect4594-3"/><use transform="translate(4.79976 4.79976)" width="100%" height="100%" xlink:href="#rect4594-3"/><use transform="translate(0,9.59952)" width="100%" height="100%" xlink:href="#rect4594-3"/><use transform="translate(4.79976 14.3993)" width="100%" height="100%" xlink:href="#rect4594-3"/><use transform="translate(9.59951)" width="100%" height="100%" xlink:href="#rect4594"/><use transform="translate(4.79976 4.79976)" width="100%" height="100%" xlink:href="#rect4594"/><use transform="translate(9.59951 9.59952)" width="100%" height="100%" xlink:href="#rect4594"/></g></g><text transform="matrix(.264583 0 0 .264583 .529166 282.821)" fill="#ffffff" font-family="Jost" font-size="64px" letter-spacing="0px" word-spacing="0px" style="line-height:1.25;shape-inside:url(#rect6445);white-space:pre" xml:space="preserve"/><g transform="matrix(.259097 0 0 .256733 -.110882 281.315)" fill="#fff" style="white-space:pre" aria-label="САПР"><path d="m99.5755 45.1364q0-6.4 2.816-11.0933 2.90133-4.77866 7.50933-7.33866 4.608-2.64533 10.0693-2.64533 4.26667 0 7.68 1.10933 3.49866 1.10933 6.22933 3.072 2.73066 1.87733 4.77866 4.26666v-11.9467q-3.66933-3.15733-8.10666-4.77866-4.352-1.62133-10.9227-1.62133-6.57067 0-12.288 2.304-5.63199 2.21866-9.81332 6.4-4.18133 4.096-6.57066 9.81333-2.304 5.632-2.304 12.4587 0 6.74133 2.304 12.4587 2.38933 5.632 6.57066 9.81333 4.18134 4.18133 9.81332 6.4 5.71733 2.21867 12.288 2.21867 6.57066 0 10.9227-1.62133 4.43733-1.62133 8.10666-4.69333v-12.032q-2.048 2.47466-4.77866 4.43733-2.73067 1.87733-6.22933 2.98666-3.41333 1.10933-7.68 1.10933-5.46133 0-10.0693-2.64533t-7.50933-7.33866q-2.816-4.77866-2.816-11.0933z"/><path d="m156.919 59.6431h31.5733l-1.87734-8.53333h-27.7333zm15.616-27.4773 9.55733 22.1867 0.17067 2.47467 8.10666 18.176h11.4347l-29.2693-63.0613-29.184 63.0613h11.3493l8.27733-18.688 0.17067-2.21867z"/><path d="m247.885 24.5711v50.432h10.24v-59.7333h-49.3226v59.7333h10.24v-50.432z"/><path d="m271.607 15.2698v59.7333h10.0693v-59.7333zm5.97333 8.87466h12.032q5.20533 0 8.36266 2.47466 3.15733 2.38933 3.15733 7.168t-3.15733 7.25333q-3.15733 2.47467-8.36266 2.47467h-12.032v8.87466h12.032q6.57066 0 11.3493-2.21867 4.77866-2.304 7.42399-6.48533 2.73067-4.18133 2.73067-9.89866t-2.73067-9.81333q-2.64533-4.18133-7.42399-6.4-4.77867-2.304-11.3493-2.304h-12.032z"/></g><g transform="scale(.984976 1.01525)" fill="#fff" stroke-width=".285261" aria-label="ФГБОУ ВО «ТГТУ» "><path d="m25.322 274.599v3.72742h0.638986v-3.72742zm1.70929 1.86371q0 0.29287-0.143772 0.48457-0.143772 0.18637-0.404691 0.27689-0.255594 0.0905-0.596386 0.0905h-0.495214q-0.340793 0-0.601712-0.0905-0.255594-0.0905-0.399366-0.27689-0.143772-0.1917-0.143772-0.48457 0-0.29819 0.143772-0.48456t0.399366-0.2769q0.260919-0.0905 0.601712-0.0905h0.495214q0.340792 0 0.596386 0.0905 0.260919 0.0905 0.404691 0.2769 0.143772 0.18637 0.143772 0.48456zm0.638985 0q0-0.45261-0.223645-0.7721-0.223645-0.3195-0.612361-0.48989-0.388716-0.17572-0.878605-0.17572h-0.628336q-0.489889 0-0.88393 0.17572-0.388716 0.17039-0.612361 0.48989-0.223645 0.31949-0.223645 0.7721 0 0.44729 0.223645 0.77211 0.223645 0.31949 0.612361 0.49521 0.394041 0.1704 0.88393 0.1704h0.628336q0.489889 0 0.878605-0.1704 0.388716-0.17572 0.612361-0.49521 0.223645-0.32482 0.223645-0.77211z"/><path d="m28.3092 274.599v3.72742h0.633661v-3.147h1.35784v-0.58042z"/><path d="m31.0302 276.601h0.947829q0.212995 0 0.372741 0.0639 0.159747 0.0639 0.244945 0.19702 0.09052 0.1278 0.09052 0.32482t-0.09052 0.33014q-0.0852 0.1278-0.244945 0.19169-0.159746 0.0639-0.372741 0.0639h-0.947829v0.55379h1.0277q0.362092 0 0.644311-0.13845 0.287543-0.14377 0.452614-0.39936 0.170397-0.26092 0.170397-0.60171 0-0.34612-0.170397-0.59639-0.165071-0.25559-0.452614-0.39404-0.282219-0.13845-0.644311-0.13845h-1.0277zm-0.250269-2.00216v3.72742h0.638985v-3.17363h1.62409v-0.55379z"/><path d="m34.4062 276.462q0-0.38339 0.165071-0.68158 0.165072-0.30352 0.44729-0.47392 0.287544-0.17039 0.65496-0.17039 0.378067 0 0.660286 0.17039 0.287543 0.1704 0.44729 0.47392 0.159746 0.29819 0.159746 0.68158t-0.165071 0.68159q-0.159747 0.29819-0.44729 0.47391-0.282219 0.1704-0.654961 0.1704-0.367416 0-0.65496-0.1704-0.282218-0.17572-0.44729-0.47391-0.165071-0.2982-0.165071-0.68159zm-0.66561 0q0 0.41534 0.143772 0.77211t0.404691 0.61769 0.612361 0.41001q0.356767 0.14377 0.772107 0.14377 0.425991 0 0.777433-0.14377 0.351442-0.14909 0.612361-0.41001t0.404691-0.61769 0.143772-0.77211q0-0.42066-0.143772-0.7721-0.143772-0.35145-0.410016-0.60704-0.260919-0.26092-0.612361-0.40469-0.351442-0.1491-0.772108-0.1491-0.410015 0-0.766782 0.1491-0.351442 0.14377-0.617686 0.40469-0.260919 0.25559-0.404691 0.60704-0.143772 0.35144-0.143772 0.7721z"/><path d="m40.7961 274.599h-0.67626l-1.07563 2.3749 0.324818 0.016-0.995753-2.39088h-0.740158l1.23005 2.6092-0.489889 1.11822h0.670935z"/><path d="m43.2668 276.404h0.644311q0.356767 0 0.623011-0.10117 0.266244-0.10118 0.41534-0.29287 0.154422-0.19702 0.154422-0.47392 0-0.31949-0.154422-0.52716-0.149096-0.20767-0.41534-0.30884-0.266244-0.10118-0.623011-0.10118h-1.12355v3.72742h1.18745q0.399366 0 0.697559-0.11182 0.303519-0.11715 0.473915-0.35677t0.170396-0.60703q0-0.26625-0.106498-0.45794-0.106497-0.1917-0.292868-0.31417t-0.431315-0.18105q-0.23962-0.0639-0.511189-0.0639h-0.708209v0.35145h0.670935q0.159746 0 0.292868 0.0373 0.133122 0.032 0.234295 0.11182 0.101173 0.0745 0.154422 0.18637 0.05325 0.11182 0.05325 0.26625 0 0.20767-0.09585 0.34611-0.09585 0.13313-0.26092 0.20235-0.165071 0.0692-0.378066 0.0692h-0.521838v-2.68906h0.452614q0.266244 0 0.425991 0.1278 0.165071 0.12779 0.165071 0.36209 0 0.15442-0.07455 0.26624-0.07455 0.1065-0.20767 0.16507-0.133122 0.0586-0.308844 0.0586h-0.601711z"/><path d="m46.4404 276.462q0-0.38339 0.165072-0.68158 0.165071-0.30352 0.447289-0.47392 0.287544-0.17039 0.654961-0.17039 0.378066 0 0.660285 0.17039 0.287543 0.1704 0.44729 0.47392 0.159746 0.29819 0.159746 0.68158t-0.165071 0.68159q-0.159746 0.29819-0.44729 0.47391-0.282219 0.1704-0.65496 0.1704-0.367417 0-0.654961-0.1704-0.282218-0.17572-0.447289-0.47391-0.165072-0.2982-0.165072-0.68159zm-0.66561 0q0 0.41534 0.143772 0.77211t0.404691 0.61769 0.612361 0.41001q0.356767 0.14377 0.772108 0.14377 0.42599 0 0.777432-0.14377 0.351442-0.14909 0.612361-0.41001 0.26092-0.26092 0.404691-0.61769 0.143772-0.35677 0.143772-0.77211 0-0.42066-0.143772-0.7721-0.143771-0.35145-0.410015-0.60704-0.26092-0.26092-0.612362-0.40469-0.351442-0.1491-0.772107-0.1491-0.410016 0-0.766783 0.1491-0.351442 0.14377-0.617686 0.40469-0.260919 0.25559-0.404691 0.60704-0.143772 0.35144-0.143772 0.7721z"/><path d="m53.1231 276.947 0.798732-0.99043-0.356767-0.28222-0.985103 1.29395 0.985103 1.28862 0.356767-0.2769zm-0.942504 0 0.798732-0.99043-0.362092-0.28222-0.985103 1.29395 0.985103 1.28862 0.362092-0.2769z"/><path d="m54.2733 275.179h0.985103v3.147h0.628336v-3.147h0.985103v-0.58042h-2.59854z"/><path d="m57.3404 274.599v3.72742h0.633661v-3.147h1.35784v-0.58042z"/><path d="m59.5875 275.179h0.985103v3.147h0.628335v-3.147h0.985103v-0.58042h-2.59854z"/><path d="m65.5301 274.599h-0.67626l-1.07562 2.3749 0.324817 0.016-0.995752-2.39088h-0.740159l1.23005 2.6092-0.489889 1.11822h0.670935z"/><path d="m66.6164 276.99-0.798732 0.99042 0.356767 0.2769 0.985102-1.28862-0.985102-1.29395-0.356767 0.28222zm0.942503 0-0.798732 0.99042 0.362092 0.2769 0.985103-1.28862-0.985103-1.29395-0.362092 0.28222z"/></g></g></svg>
